<mxfile host="app.diagrams.net" modified="2022-08-11T05:13:57.253Z" agent="5.0 (Macintosh; Intel Mac OS X 10_15_7) AppleWebKit/605.1.15 (KHTML, like Gecko) Version/15.5 Safari/605.1.15" etag="uQbwhDgfcvmgPfthVxGd" version="20.2.3" type="github">
  <diagram id="GkwxvoKI0v0egCr2lqlU" name="Page-1">
    <mxGraphModel dx="3553" dy="1843" grid="1" gridSize="10" guides="1" tooltips="1" connect="1" arrows="1" fold="1" page="1" pageScale="1" pageWidth="850" pageHeight="1100" math="0" shadow="0">
      <root>
        <mxCell id="0" />
        <mxCell id="1" parent="0" />
        <mxCell id="E888Yq9Kur7Cg7WXhxhu-9" style="edgeStyle=none;rounded=0;orthogonalLoop=1;jettySize=auto;html=1;exitX=1;exitY=0.5;exitDx=0;exitDy=0;entryX=0;entryY=0.5;entryDx=0;entryDy=0;fontColor=#000000;endArrow=none;endFill=0;strokeColor=#000000;" parent="1" source="E888Yq9Kur7Cg7WXhxhu-10" target="E888Yq9Kur7Cg7WXhxhu-44" edge="1">
          <mxGeometry relative="1" as="geometry" />
        </mxCell>
        <mxCell id="E888Yq9Kur7Cg7WXhxhu-10" value="" style="ellipse;whiteSpace=wrap;html=1;aspect=fixed;" parent="1" vertex="1">
          <mxGeometry x="500" y="416" width="30" height="30" as="geometry" />
        </mxCell>
        <mxCell id="E888Yq9Kur7Cg7WXhxhu-11" style="edgeStyle=none;rounded=0;orthogonalLoop=1;jettySize=auto;html=1;exitX=1;exitY=0.5;exitDx=0;exitDy=0;entryX=0;entryY=0.5;entryDx=0;entryDy=0;fontSize=18;endArrow=none;endFill=0;fontColor=#FF0000;strokeColor=#FF0000;" parent="1" source="E888Yq9Kur7Cg7WXhxhu-12" target="E888Yq9Kur7Cg7WXhxhu-19" edge="1">
          <mxGeometry relative="1" as="geometry" />
        </mxCell>
        <mxCell id="E888Yq9Kur7Cg7WXhxhu-12" value="" style="ellipse;whiteSpace=wrap;html=1;aspect=fixed;fontColor=#FF0000;fillColor=#FF0000;strokeColor=#FF0000;" parent="1" vertex="1">
          <mxGeometry x="500" y="474" width="30" height="30" as="geometry" />
        </mxCell>
        <mxCell id="E888Yq9Kur7Cg7WXhxhu-13" style="edgeStyle=none;rounded=0;orthogonalLoop=1;jettySize=auto;html=1;exitX=1;exitY=0.5;exitDx=0;exitDy=0;entryX=0;entryY=0.5;entryDx=0;entryDy=0;fontSize=18;endArrow=none;endFill=0;" parent="1" source="E888Yq9Kur7Cg7WXhxhu-14" target="E888Yq9Kur7Cg7WXhxhu-51" edge="1">
          <mxGeometry relative="1" as="geometry">
            <mxPoint x="570" y="555.0000000000002" as="targetPoint" />
          </mxGeometry>
        </mxCell>
        <mxCell id="E888Yq9Kur7Cg7WXhxhu-14" value="" style="ellipse;whiteSpace=wrap;html=1;aspect=fixed;" parent="1" vertex="1">
          <mxGeometry x="500" y="620" width="30" height="30" as="geometry" />
        </mxCell>
        <mxCell id="E888Yq9Kur7Cg7WXhxhu-15" style="edgeStyle=none;rounded=0;orthogonalLoop=1;jettySize=auto;html=1;exitX=1;exitY=0.5;exitDx=0;exitDy=0;entryX=0;entryY=0.633;entryDx=0;entryDy=0;fontSize=18;endArrow=none;endFill=0;entryPerimeter=0;" parent="1" source="E888Yq9Kur7Cg7WXhxhu-17" target="E888Yq9Kur7Cg7WXhxhu-58" edge="1">
          <mxGeometry relative="1" as="geometry">
            <mxPoint x="230" y="463" as="targetPoint" />
          </mxGeometry>
        </mxCell>
        <mxCell id="E888Yq9Kur7Cg7WXhxhu-16" style="rounded=0;orthogonalLoop=1;jettySize=auto;html=1;exitX=1;exitY=0.5;exitDx=0;exitDy=0;entryX=0;entryY=0.5;entryDx=0;entryDy=0;fontFamily=Georgia;fontSize=27;endArrow=none;endFill=0;" parent="1" source="E888Yq9Kur7Cg7WXhxhu-17" target="E888Yq9Kur7Cg7WXhxhu-60" edge="1">
          <mxGeometry relative="1" as="geometry">
            <mxPoint x="230" y="606" as="targetPoint" />
          </mxGeometry>
        </mxCell>
        <mxCell id="E888Yq9Kur7Cg7WXhxhu-17" value="" style="ellipse;whiteSpace=wrap;html=1;aspect=fixed;" parent="1" vertex="1">
          <mxGeometry x="250" y="520" width="30" height="30" as="geometry" />
        </mxCell>
        <mxCell id="E888Yq9Kur7Cg7WXhxhu-18" style="edgeStyle=none;rounded=0;orthogonalLoop=1;jettySize=auto;html=1;exitX=1;exitY=0.5;exitDx=0;exitDy=0;entryX=0;entryY=0.5;entryDx=0;entryDy=0;fontSize=18;endArrow=none;endFill=0;fontColor=#FF0000;strokeColor=#FF0000;" parent="1" source="E888Yq9Kur7Cg7WXhxhu-19" target="E888Yq9Kur7Cg7WXhxhu-21" edge="1">
          <mxGeometry relative="1" as="geometry" />
        </mxCell>
        <mxCell id="E888Yq9Kur7Cg7WXhxhu-19" value="" style="ellipse;whiteSpace=wrap;html=1;aspect=fixed;fontColor=#FF0000;fillColor=#FF0000;strokeColor=#FF0000;" parent="1" vertex="1">
          <mxGeometry x="590" y="474" width="30" height="30" as="geometry" />
        </mxCell>
        <mxCell id="E888Yq9Kur7Cg7WXhxhu-20" style="edgeStyle=none;rounded=0;orthogonalLoop=1;jettySize=auto;html=1;exitX=1;exitY=0.5;exitDx=0;exitDy=0;entryX=0;entryY=0.5;entryDx=0;entryDy=0;fontColor=#FF0000;endArrow=none;endFill=0;strokeColor=#FF0000;" parent="1" source="E888Yq9Kur7Cg7WXhxhu-21" target="E888Yq9Kur7Cg7WXhxhu-54" edge="1">
          <mxGeometry relative="1" as="geometry" />
        </mxCell>
        <mxCell id="E888Yq9Kur7Cg7WXhxhu-21" value="" style="ellipse;whiteSpace=wrap;html=1;aspect=fixed;fontColor=#FF0000;fillColor=#FF0000;strokeColor=#FF0000;" parent="1" vertex="1">
          <mxGeometry x="716" y="474" width="30" height="30" as="geometry" />
        </mxCell>
        <mxCell id="E888Yq9Kur7Cg7WXhxhu-22" value="&lt;span style=&quot;font-family: &amp;#34;georgia&amp;#34; ; font-size: 27px&quot;&gt;&amp;lt;s&amp;gt;&lt;/span&gt;" style="text;html=1;align=center;verticalAlign=middle;resizable=0;points=[];autosize=1;strokeColor=none;fillColor=none;" parent="1" vertex="1">
          <mxGeometry x="190" y="525" width="60" height="20" as="geometry" />
        </mxCell>
        <mxCell id="E888Yq9Kur7Cg7WXhxhu-29" value="&lt;font style=&quot;font-size: 27px&quot; face=&quot;Georgia&quot;&gt;the&lt;/font&gt;" style="text;html=1;align=center;verticalAlign=middle;resizable=0;points=[];autosize=1;strokeColor=none;fillColor=none;fontColor=#FF0000;" parent="1" vertex="1">
          <mxGeometry x="641" y="552" width="50" height="20" as="geometry" />
        </mxCell>
        <mxCell id="E888Yq9Kur7Cg7WXhxhu-30" value="&lt;font style=&quot;font-size: 27px&quot; face=&quot;Georgia&quot;&gt;the&lt;/font&gt;" style="text;html=1;align=center;verticalAlign=middle;resizable=0;points=[];autosize=1;strokeColor=none;fillColor=none;fontColor=#FF0000;" parent="1" vertex="1">
          <mxGeometry x="641" y="464" width="50" height="20" as="geometry" />
        </mxCell>
        <mxCell id="E888Yq9Kur7Cg7WXhxhu-31" value="&lt;font style=&quot;font-size: 27px&quot; face=&quot;Georgia&quot;&gt;these&lt;/font&gt;" style="text;html=1;align=center;verticalAlign=middle;resizable=0;points=[];autosize=1;strokeColor=none;fillColor=none;" parent="1" vertex="1">
          <mxGeometry x="626" y="407" width="80" height="20" as="geometry" />
        </mxCell>
        <mxCell id="E888Yq9Kur7Cg7WXhxhu-32" value="&lt;font style=&quot;font-size: 27px&quot; face=&quot;Georgia&quot;&gt;there&lt;/font&gt;" style="text;html=1;align=center;verticalAlign=middle;resizable=0;points=[];autosize=1;strokeColor=none;fillColor=none;" parent="1" vertex="1">
          <mxGeometry x="626" y="611" width="80" height="20" as="geometry" />
        </mxCell>
        <mxCell id="E888Yq9Kur7Cg7WXhxhu-36" style="edgeStyle=none;rounded=0;orthogonalLoop=1;jettySize=auto;html=1;exitX=1;exitY=0.5;exitDx=0;exitDy=0;fontColor=#FF0000;endArrow=none;endFill=0;strokeColor=#000000;entryX=0;entryY=0.5;entryDx=0;entryDy=0;" parent="1" source="E888Yq9Kur7Cg7WXhxhu-37" target="E888Yq9Kur7Cg7WXhxhu-54" edge="1">
          <mxGeometry relative="1" as="geometry">
            <mxPoint x="820" y="550" as="targetPoint" />
          </mxGeometry>
        </mxCell>
        <mxCell id="E888Yq9Kur7Cg7WXhxhu-37" value="" style="ellipse;whiteSpace=wrap;html=1;aspect=fixed;fillColor=none;" parent="1" vertex="1">
          <mxGeometry x="716" y="620" width="30" height="30" as="geometry" />
        </mxCell>
        <mxCell id="E888Yq9Kur7Cg7WXhxhu-38" style="edgeStyle=none;rounded=0;orthogonalLoop=1;jettySize=auto;html=1;exitX=1;exitY=0.5;exitDx=0;exitDy=0;fontColor=#FF0000;endArrow=none;endFill=0;strokeColor=#FF0000;entryX=0;entryY=0.5;entryDx=0;entryDy=0;" parent="1" source="E888Yq9Kur7Cg7WXhxhu-39" target="E888Yq9Kur7Cg7WXhxhu-54" edge="1">
          <mxGeometry relative="1" as="geometry">
            <mxPoint x="810" y="550" as="targetPoint" />
          </mxGeometry>
        </mxCell>
        <mxCell id="E888Yq9Kur7Cg7WXhxhu-39" value="" style="ellipse;whiteSpace=wrap;html=1;aspect=fixed;fontColor=#FF0000;fillColor=#FF0000;strokeColor=#FF0000;" parent="1" vertex="1">
          <mxGeometry x="716" y="561" width="30" height="30" as="geometry" />
        </mxCell>
        <mxCell id="E888Yq9Kur7Cg7WXhxhu-40" style="edgeStyle=none;rounded=0;orthogonalLoop=1;jettySize=auto;html=1;exitX=1;exitY=0.5;exitDx=0;exitDy=0;entryX=0;entryY=0.5;entryDx=0;entryDy=0;fontColor=#FF0000;endArrow=none;endFill=0;strokeColor=#000000;" parent="1" source="E888Yq9Kur7Cg7WXhxhu-41" target="E888Yq9Kur7Cg7WXhxhu-54" edge="1">
          <mxGeometry relative="1" as="geometry" />
        </mxCell>
        <mxCell id="E888Yq9Kur7Cg7WXhxhu-41" value="" style="ellipse;whiteSpace=wrap;html=1;aspect=fixed;fillColor=none;" parent="1" vertex="1">
          <mxGeometry x="716" y="416" width="30" height="30" as="geometry" />
        </mxCell>
        <mxCell id="E888Yq9Kur7Cg7WXhxhu-43" style="edgeStyle=none;rounded=0;orthogonalLoop=1;jettySize=auto;html=1;exitX=1;exitY=0.5;exitDx=0;exitDy=0;entryX=0;entryY=0.5;entryDx=0;entryDy=0;fontColor=#000000;endArrow=none;endFill=0;strokeColor=#000000;" parent="1" source="E888Yq9Kur7Cg7WXhxhu-44" target="E888Yq9Kur7Cg7WXhxhu-41" edge="1">
          <mxGeometry relative="1" as="geometry" />
        </mxCell>
        <mxCell id="E888Yq9Kur7Cg7WXhxhu-44" value="" style="ellipse;whiteSpace=wrap;html=1;aspect=fixed;" parent="1" vertex="1">
          <mxGeometry x="590" y="416" width="30" height="30" as="geometry" />
        </mxCell>
        <mxCell id="E888Yq9Kur7Cg7WXhxhu-45" style="edgeStyle=none;rounded=0;orthogonalLoop=1;jettySize=auto;html=1;exitX=1;exitY=0.5;exitDx=0;exitDy=0;entryX=0;entryY=0.5;entryDx=0;entryDy=0;fontColor=#FF0000;endArrow=none;endFill=0;strokeColor=#FF0000;" parent="1" source="E888Yq9Kur7Cg7WXhxhu-46" target="E888Yq9Kur7Cg7WXhxhu-49" edge="1">
          <mxGeometry relative="1" as="geometry" />
        </mxCell>
        <mxCell id="E888Yq9Kur7Cg7WXhxhu-46" value="" style="ellipse;whiteSpace=wrap;html=1;aspect=fixed;fontColor=#FF0000;fillColor=#FF0000;strokeColor=#FF0000;" parent="1" vertex="1">
          <mxGeometry x="500" y="561" width="30" height="30" as="geometry" />
        </mxCell>
        <mxCell id="E888Yq9Kur7Cg7WXhxhu-48" style="edgeStyle=none;rounded=0;orthogonalLoop=1;jettySize=auto;html=1;exitX=1;exitY=0.5;exitDx=0;exitDy=0;entryX=0;entryY=0.5;entryDx=0;entryDy=0;fontColor=#FF0000;endArrow=none;endFill=0;strokeColor=#FF0000;" parent="1" source="E888Yq9Kur7Cg7WXhxhu-49" target="E888Yq9Kur7Cg7WXhxhu-39" edge="1">
          <mxGeometry relative="1" as="geometry" />
        </mxCell>
        <mxCell id="E888Yq9Kur7Cg7WXhxhu-49" value="" style="ellipse;whiteSpace=wrap;html=1;aspect=fixed;fontColor=#FF0000;fillColor=#FF0000;strokeColor=#FF0000;" parent="1" vertex="1">
          <mxGeometry x="590" y="561" width="30" height="30" as="geometry" />
        </mxCell>
        <mxCell id="E888Yq9Kur7Cg7WXhxhu-50" style="edgeStyle=none;rounded=0;orthogonalLoop=1;jettySize=auto;html=1;exitX=1;exitY=0.5;exitDx=0;exitDy=0;entryX=0;entryY=0.5;entryDx=0;entryDy=0;fontColor=#FF0000;endArrow=none;endFill=0;strokeColor=#000000;" parent="1" source="E888Yq9Kur7Cg7WXhxhu-51" target="E888Yq9Kur7Cg7WXhxhu-37" edge="1">
          <mxGeometry relative="1" as="geometry" />
        </mxCell>
        <mxCell id="E888Yq9Kur7Cg7WXhxhu-51" value="" style="ellipse;whiteSpace=wrap;html=1;aspect=fixed;" parent="1" vertex="1">
          <mxGeometry x="590" y="620" width="30" height="30" as="geometry" />
        </mxCell>
        <mxCell id="E888Yq9Kur7Cg7WXhxhu-101" style="edgeStyle=none;rounded=0;orthogonalLoop=1;jettySize=auto;html=1;exitX=1;exitY=0.5;exitDx=0;exitDy=0;entryX=0;entryY=0.5;entryDx=0;entryDy=0;fontColor=#000000;endArrow=none;endFill=0;strokeColor=#000000;" parent="1" source="E888Yq9Kur7Cg7WXhxhu-54" target="E888Yq9Kur7Cg7WXhxhu-100" edge="1">
          <mxGeometry relative="1" as="geometry" />
        </mxCell>
        <mxCell id="E888Yq9Kur7Cg7WXhxhu-54" value="" style="ellipse;whiteSpace=wrap;html=1;aspect=fixed;fillColor=none;" parent="1" vertex="1">
          <mxGeometry x="871" y="520" width="30" height="30" as="geometry" />
        </mxCell>
        <mxCell id="E888Yq9Kur7Cg7WXhxhu-57" style="edgeStyle=none;rounded=0;orthogonalLoop=1;jettySize=auto;html=1;exitX=1;exitY=0.5;exitDx=0;exitDy=0;entryX=0;entryY=0.5;entryDx=0;entryDy=0;fontColor=#000000;endArrow=none;endFill=0;strokeColor=#FF0000;" parent="1" source="E888Yq9Kur7Cg7WXhxhu-58" target="E888Yq9Kur7Cg7WXhxhu-12" edge="1">
          <mxGeometry relative="1" as="geometry" />
        </mxCell>
        <mxCell id="E888Yq9Kur7Cg7WXhxhu-117" style="edgeStyle=none;rounded=0;orthogonalLoop=1;jettySize=auto;html=1;exitX=1;exitY=0.5;exitDx=0;exitDy=0;entryX=0;entryY=0.5;entryDx=0;entryDy=0;fontColor=#FF0000;endArrow=none;endFill=0;strokeColor=#000000;" parent="1" source="E888Yq9Kur7Cg7WXhxhu-58" target="E888Yq9Kur7Cg7WXhxhu-10" edge="1">
          <mxGeometry relative="1" as="geometry" />
        </mxCell>
        <mxCell id="E888Yq9Kur7Cg7WXhxhu-58" value="" style="ellipse;whiteSpace=wrap;html=1;aspect=fixed;fontColor=#FF0000;fillColor=#FF0000;strokeColor=#FF0000;" parent="1" vertex="1">
          <mxGeometry x="367" y="448" width="30" height="30" as="geometry" />
        </mxCell>
        <mxCell id="E888Yq9Kur7Cg7WXhxhu-59" style="edgeStyle=none;rounded=0;orthogonalLoop=1;jettySize=auto;html=1;exitX=1;exitY=0.5;exitDx=0;exitDy=0;entryX=0;entryY=0.5;entryDx=0;entryDy=0;fontColor=#000000;endArrow=none;endFill=0;strokeColor=#FF0000;" parent="1" source="E888Yq9Kur7Cg7WXhxhu-60" target="E888Yq9Kur7Cg7WXhxhu-46" edge="1">
          <mxGeometry relative="1" as="geometry" />
        </mxCell>
        <mxCell id="E888Yq9Kur7Cg7WXhxhu-118" style="edgeStyle=none;rounded=0;orthogonalLoop=1;jettySize=auto;html=1;exitX=1;exitY=0.5;exitDx=0;exitDy=0;entryX=0;entryY=0.5;entryDx=0;entryDy=0;fontColor=#FF0000;endArrow=none;endFill=0;strokeColor=#000000;" parent="1" source="E888Yq9Kur7Cg7WXhxhu-60" target="E888Yq9Kur7Cg7WXhxhu-14" edge="1">
          <mxGeometry relative="1" as="geometry" />
        </mxCell>
        <mxCell id="E888Yq9Kur7Cg7WXhxhu-60" value="" style="ellipse;whiteSpace=wrap;html=1;aspect=fixed;fontColor=#FF0000;fillColor=#FF0000;strokeColor=#FF0000;" parent="1" vertex="1">
          <mxGeometry x="367" y="592" width="30" height="30" as="geometry" />
        </mxCell>
        <mxCell id="E888Yq9Kur7Cg7WXhxhu-66" value="" style="ellipse;whiteSpace=wrap;html=1;aspect=fixed;fontColor=#FF0000;fillColor=none;strokeColor=#000000;" parent="1" vertex="1">
          <mxGeometry x="1095" y="520" width="30" height="30" as="geometry" />
        </mxCell>
        <mxCell id="E888Yq9Kur7Cg7WXhxhu-67" style="rounded=0;orthogonalLoop=1;jettySize=auto;html=1;exitX=1;exitY=0.5;exitDx=0;exitDy=0;entryX=0;entryY=0.5;entryDx=0;entryDy=0;endArrow=none;endFill=0;fontColor=#FF0000;strokeColor=#000000;" parent="1" source="E888Yq9Kur7Cg7WXhxhu-66" target="E888Yq9Kur7Cg7WXhxhu-69" edge="1">
          <mxGeometry relative="1" as="geometry">
            <mxPoint x="1144.9999999999995" y="499.9999999999998" as="sourcePoint" />
          </mxGeometry>
        </mxCell>
        <mxCell id="E888Yq9Kur7Cg7WXhxhu-68" style="edgeStyle=none;rounded=0;orthogonalLoop=1;jettySize=auto;html=1;exitX=1;exitY=0.5;exitDx=0;exitDy=0;entryX=0;entryY=0.5;entryDx=0;entryDy=0;endArrow=none;endFill=0;fontColor=#FF0000;strokeColor=#000000;" parent="1" source="E888Yq9Kur7Cg7WXhxhu-69" target="E888Yq9Kur7Cg7WXhxhu-72" edge="1">
          <mxGeometry relative="1" as="geometry" />
        </mxCell>
        <mxCell id="E888Yq9Kur7Cg7WXhxhu-69" value="" style="ellipse;whiteSpace=wrap;html=1;aspect=fixed;fontColor=#FF0000;fillColor=none;strokeColor=#000000;" parent="1" vertex="1">
          <mxGeometry x="1195" y="520" width="30" height="30" as="geometry" />
        </mxCell>
        <mxCell id="E888Yq9Kur7Cg7WXhxhu-70" style="edgeStyle=none;rounded=0;orthogonalLoop=1;jettySize=auto;html=1;exitX=1;exitY=0.5;exitDx=0;exitDy=0;entryX=0;entryY=0.5;entryDx=0;entryDy=0;fontSize=18;endArrow=none;endFill=0;" parent="1" source="E888Yq9Kur7Cg7WXhxhu-72" target="E888Yq9Kur7Cg7WXhxhu-74" edge="1">
          <mxGeometry relative="1" as="geometry" />
        </mxCell>
        <mxCell id="E888Yq9Kur7Cg7WXhxhu-71" style="edgeStyle=none;rounded=0;orthogonalLoop=1;jettySize=auto;html=1;exitX=1;exitY=0.5;exitDx=0;exitDy=0;entryX=0;entryY=0.5;entryDx=0;entryDy=0;fontSize=18;endArrow=none;endFill=0;" parent="1" source="E888Yq9Kur7Cg7WXhxhu-72" target="E888Yq9Kur7Cg7WXhxhu-76" edge="1">
          <mxGeometry relative="1" as="geometry" />
        </mxCell>
        <mxCell id="E888Yq9Kur7Cg7WXhxhu-72" value="" style="ellipse;whiteSpace=wrap;html=1;aspect=fixed;fontColor=#FF0000;fillColor=none;strokeColor=#000000;" parent="1" vertex="1">
          <mxGeometry x="1305" y="520" width="30" height="30" as="geometry" />
        </mxCell>
        <mxCell id="E888Yq9Kur7Cg7WXhxhu-73" style="edgeStyle=none;rounded=0;orthogonalLoop=1;jettySize=auto;html=1;exitX=1;exitY=0.5;exitDx=0;exitDy=0;entryX=0;entryY=0.5;entryDx=0;entryDy=0;fontSize=18;endArrow=none;endFill=0;" parent="1" source="E888Yq9Kur7Cg7WXhxhu-74" target="E888Yq9Kur7Cg7WXhxhu-77" edge="1">
          <mxGeometry relative="1" as="geometry" />
        </mxCell>
        <mxCell id="E888Yq9Kur7Cg7WXhxhu-74" value="" style="ellipse;whiteSpace=wrap;html=1;aspect=fixed;" parent="1" vertex="1">
          <mxGeometry x="1424" y="485" width="30" height="30" as="geometry" />
        </mxCell>
        <mxCell id="E888Yq9Kur7Cg7WXhxhu-75" style="edgeStyle=none;rounded=0;orthogonalLoop=1;jettySize=auto;html=1;exitX=1;exitY=0.5;exitDx=0;exitDy=0;fontSize=18;endArrow=none;endFill=0;entryX=0;entryY=0.5;entryDx=0;entryDy=0;" parent="1" source="E888Yq9Kur7Cg7WXhxhu-76" target="E888Yq9Kur7Cg7WXhxhu-77" edge="1">
          <mxGeometry relative="1" as="geometry">
            <mxPoint x="1734" y="565" as="targetPoint" />
          </mxGeometry>
        </mxCell>
        <mxCell id="E888Yq9Kur7Cg7WXhxhu-76" value="" style="ellipse;whiteSpace=wrap;html=1;aspect=fixed;" parent="1" vertex="1">
          <mxGeometry x="1424" y="565" width="30" height="30" as="geometry" />
        </mxCell>
        <mxCell id="E888Yq9Kur7Cg7WXhxhu-77" value="" style="ellipse;whiteSpace=wrap;html=1;aspect=fixed;" parent="1" vertex="1">
          <mxGeometry x="1545" y="520" width="30" height="30" as="geometry" />
        </mxCell>
        <mxCell id="E888Yq9Kur7Cg7WXhxhu-78" value="&lt;font style=&quot;font-size: 27px&quot; face=&quot;Georgia&quot;&gt;on&lt;/font&gt;" style="text;html=1;align=center;verticalAlign=middle;resizable=0;points=[];autosize=1;strokeColor=none;fillColor=none;fontColor=#000000;" parent="1" vertex="1">
          <mxGeometry x="1135" y="510" width="50" height="20" as="geometry" />
        </mxCell>
        <mxCell id="E888Yq9Kur7Cg7WXhxhu-79" value="&lt;font style=&quot;font-size: 27px&quot; face=&quot;Georgia&quot;&gt;the&lt;/font&gt;" style="text;html=1;align=center;verticalAlign=middle;resizable=0;points=[];autosize=1;strokeColor=none;fillColor=none;fontColor=#000000;" parent="1" vertex="1">
          <mxGeometry x="1245" y="510" width="50" height="20" as="geometry" />
        </mxCell>
        <mxCell id="E888Yq9Kur7Cg7WXhxhu-80" value="&lt;font style=&quot;font-size: 27px&quot; face=&quot;Georgia&quot;&gt;desk&lt;/font&gt;" style="text;html=1;align=center;verticalAlign=middle;resizable=0;points=[];autosize=1;strokeColor=none;fillColor=none;" parent="1" vertex="1">
          <mxGeometry x="1330" y="490" width="70" height="20" as="geometry" />
        </mxCell>
        <mxCell id="E888Yq9Kur7Cg7WXhxhu-81" value="&lt;font style=&quot;font-size: 27px&quot; face=&quot;Georgia&quot;&gt;task&lt;/font&gt;" style="text;html=1;align=center;verticalAlign=middle;resizable=0;points=[];autosize=1;strokeColor=none;fillColor=none;" parent="1" vertex="1">
          <mxGeometry x="1340" y="565" width="60" height="20" as="geometry" />
        </mxCell>
        <mxCell id="E888Yq9Kur7Cg7WXhxhu-82" value="&lt;font style=&quot;font-size: 27px&quot; face=&quot;Georgia&quot;&gt;&amp;lt;/s&amp;gt;&lt;/font&gt;" style="text;html=1;align=center;verticalAlign=middle;resizable=0;points=[];autosize=1;strokeColor=none;fillColor=none;" parent="1" vertex="1">
          <mxGeometry x="1470" y="487" width="70" height="20" as="geometry" />
        </mxCell>
        <mxCell id="E888Yq9Kur7Cg7WXhxhu-83" value="&lt;font style=&quot;font-size: 27px&quot; face=&quot;Georgia&quot;&gt;&amp;lt;/s&amp;gt;&lt;/font&gt;" style="text;html=1;align=center;verticalAlign=middle;resizable=0;points=[];autosize=1;strokeColor=none;fillColor=none;" parent="1" vertex="1">
          <mxGeometry x="1470" y="567" width="70" height="20" as="geometry" />
        </mxCell>
        <mxCell id="E888Yq9Kur7Cg7WXhxhu-86" value="&lt;font style=&quot;font-size: 27px&quot; face=&quot;Georgia&quot;&gt;&amp;lt;s&amp;gt;&lt;/font&gt;" style="text;html=1;align=center;verticalAlign=middle;resizable=0;points=[];autosize=1;strokeColor=none;fillColor=none;" parent="1" vertex="1">
          <mxGeometry x="1033" y="523" width="60" height="20" as="geometry" />
        </mxCell>
        <mxCell id="E888Yq9Kur7Cg7WXhxhu-100" value="" style="ellipse;whiteSpace=wrap;html=1;aspect=fixed;" parent="1" vertex="1">
          <mxGeometry x="971" y="520" width="30" height="30" as="geometry" />
        </mxCell>
        <mxCell id="E888Yq9Kur7Cg7WXhxhu-102" value="&lt;font style=&quot;font-size: 27px&quot; face=&quot;Georgia&quot;&gt;&amp;lt;/s&amp;gt;&lt;/font&gt;" style="text;html=1;align=center;verticalAlign=middle;resizable=0;points=[];autosize=1;strokeColor=none;fillColor=none;" parent="1" vertex="1">
          <mxGeometry x="901" y="510" width="70" height="20" as="geometry" />
        </mxCell>
        <mxCell id="E888Yq9Kur7Cg7WXhxhu-103" value="&lt;font style=&quot;font-size: 27px&quot; face=&quot;Georgia&quot;&gt;book&lt;/font&gt;" style="text;html=1;align=center;verticalAlign=middle;resizable=0;points=[];autosize=1;strokeColor=none;fillColor=none;" parent="1" vertex="1">
          <mxGeometry x="790" y="458" width="70" height="20" as="geometry" />
        </mxCell>
        <mxCell id="E888Yq9Kur7Cg7WXhxhu-104" value="&lt;font style=&quot;font-size: 27px&quot; face=&quot;Georgia&quot;&gt;book&lt;/font&gt;" style="text;html=1;align=center;verticalAlign=middle;resizable=0;points=[];autosize=1;strokeColor=none;fillColor=none;fontColor=#FF0000;" parent="1" vertex="1">
          <mxGeometry x="731" y="506" width="70" height="20" as="geometry" />
        </mxCell>
        <mxCell id="E888Yq9Kur7Cg7WXhxhu-105" value="&lt;font style=&quot;font-size: 27px&quot; face=&quot;Georgia&quot;&gt;book&lt;/font&gt;" style="text;html=1;align=center;verticalAlign=middle;resizable=0;points=[];autosize=1;strokeColor=none;fillColor=none;fontColor=#FF0000;" parent="1" vertex="1">
          <mxGeometry x="733" y="543" width="70" height="20" as="geometry" />
        </mxCell>
        <mxCell id="E888Yq9Kur7Cg7WXhxhu-106" value="&lt;font style=&quot;font-size: 27px&quot; face=&quot;Georgia&quot;&gt;book&lt;/font&gt;" style="text;html=1;align=center;verticalAlign=middle;resizable=0;points=[];autosize=1;strokeColor=none;fillColor=none;" parent="1" vertex="1">
          <mxGeometry x="790" y="602" width="70" height="20" as="geometry" />
        </mxCell>
        <mxCell id="E888Yq9Kur7Cg7WXhxhu-107" value="&lt;font style=&quot;font-size: 27px&quot; face=&quot;Georgia&quot;&gt;is&lt;/font&gt;" style="text;html=1;align=center;verticalAlign=middle;resizable=0;points=[];autosize=1;strokeColor=none;fillColor=none;fontColor=#000000;" parent="1" vertex="1">
          <mxGeometry x="540" y="407" width="40" height="20" as="geometry" />
        </mxCell>
        <mxCell id="E888Yq9Kur7Cg7WXhxhu-108" value="&lt;font style=&quot;font-size: 27px&quot; face=&quot;Georgia&quot;&gt;is&lt;/font&gt;" style="text;html=1;align=center;verticalAlign=middle;resizable=0;points=[];autosize=1;strokeColor=none;fillColor=none;fontColor=#FF0000;" parent="1" vertex="1">
          <mxGeometry x="540" y="464" width="40" height="20" as="geometry" />
        </mxCell>
        <mxCell id="E888Yq9Kur7Cg7WXhxhu-109" value="&lt;font style=&quot;font-size: 27px&quot; face=&quot;Georgia&quot;&gt;is&lt;/font&gt;" style="text;html=1;align=center;verticalAlign=middle;resizable=0;points=[];autosize=1;strokeColor=none;fillColor=none;fontColor=#FF0000;" parent="1" vertex="1">
          <mxGeometry x="540" y="552" width="40" height="20" as="geometry" />
        </mxCell>
        <mxCell id="E888Yq9Kur7Cg7WXhxhu-110" value="&lt;font style=&quot;font-size: 27px&quot; face=&quot;Georgia&quot;&gt;is&lt;/font&gt;" style="text;html=1;align=center;verticalAlign=middle;resizable=0;points=[];autosize=1;strokeColor=none;fillColor=none;fontColor=#000000;" parent="1" vertex="1">
          <mxGeometry x="540" y="611" width="40" height="20" as="geometry" />
        </mxCell>
        <mxCell id="E888Yq9Kur7Cg7WXhxhu-111" value="&lt;font style=&quot;font-size: 27px&quot; face=&quot;Georgia&quot;&gt;where&lt;/font&gt;" style="text;html=1;align=center;verticalAlign=middle;resizable=0;points=[];autosize=1;strokeColor=none;fillColor=none;" parent="1" vertex="1">
          <mxGeometry x="400" y="416" width="90" height="20" as="geometry" />
        </mxCell>
        <mxCell id="E888Yq9Kur7Cg7WXhxhu-112" value="&lt;font style=&quot;font-size: 27px&quot; face=&quot;Georgia&quot;&gt;where&lt;/font&gt;" style="text;html=1;align=center;verticalAlign=middle;resizable=0;points=[];autosize=1;strokeColor=none;fillColor=none;fontColor=#FF0000;" parent="1" vertex="1">
          <mxGeometry x="400" y="480" width="90" height="20" as="geometry" />
        </mxCell>
        <mxCell id="E888Yq9Kur7Cg7WXhxhu-113" value="&lt;font style=&quot;font-size: 27px&quot; face=&quot;Georgia&quot;&gt;where&lt;/font&gt;" style="text;html=1;align=center;verticalAlign=middle;resizable=0;points=[];autosize=1;strokeColor=none;fillColor=none;fontColor=#FF0000;" parent="1" vertex="1">
          <mxGeometry x="400" y="562" width="90" height="20" as="geometry" />
        </mxCell>
        <mxCell id="E888Yq9Kur7Cg7WXhxhu-114" value="&lt;font style=&quot;font-size: 27px&quot; face=&quot;Georgia&quot;&gt;where&lt;/font&gt;" style="text;html=1;align=center;verticalAlign=middle;resizable=0;points=[];autosize=1;strokeColor=none;fillColor=none;" parent="1" vertex="1">
          <mxGeometry x="400" y="625" width="90" height="20" as="geometry" />
        </mxCell>
        <mxCell id="E888Yq9Kur7Cg7WXhxhu-119" value="&lt;font style=&quot;font-size: 27px&quot; face=&quot;Georgia&quot;&gt;and&lt;/font&gt;" style="text;html=1;align=center;verticalAlign=middle;resizable=0;points=[];autosize=1;strokeColor=none;fillColor=none;" parent="1" vertex="1">
          <mxGeometry x="280" y="474" width="60" height="20" as="geometry" />
        </mxCell>
        <mxCell id="E888Yq9Kur7Cg7WXhxhu-120" value="&lt;font style=&quot;font-size: 27px&quot; face=&quot;Georgia&quot;&gt;ant&lt;/font&gt;" style="text;html=1;align=center;verticalAlign=middle;resizable=0;points=[];autosize=1;strokeColor=none;fillColor=none;" parent="1" vertex="1">
          <mxGeometry x="285" y="577" width="50" height="20" as="geometry" />
        </mxCell>
        <mxCell id="yA_xVkvxDWWqevIZnlIL-2" style="edgeStyle=none;rounded=0;orthogonalLoop=1;jettySize=auto;html=1;exitX=1;exitY=0.5;exitDx=0;exitDy=0;entryX=0;entryY=0.5;entryDx=0;entryDy=0;endArrow=none;endFill=0;fontColor=#FF0000;strokeColor=#000000;" parent="1" source="yA_xVkvxDWWqevIZnlIL-4" target="yA_xVkvxDWWqevIZnlIL-74" edge="1">
          <mxGeometry relative="1" as="geometry">
            <mxPoint x="662" y="992.9999999999998" as="targetPoint" />
          </mxGeometry>
        </mxCell>
        <mxCell id="yA_xVkvxDWWqevIZnlIL-100" style="edgeStyle=none;rounded=0;orthogonalLoop=1;jettySize=auto;html=1;exitX=1;exitY=0.5;exitDx=0;exitDy=0;entryX=0;entryY=0.5;entryDx=0;entryDy=0;endArrow=none;endFill=0;" parent="1" source="yA_xVkvxDWWqevIZnlIL-4" target="yA_xVkvxDWWqevIZnlIL-72" edge="1">
          <mxGeometry relative="1" as="geometry" />
        </mxCell>
        <mxCell id="yA_xVkvxDWWqevIZnlIL-4" value="" style="ellipse;whiteSpace=wrap;html=1;aspect=fixed;fillColor=none;" parent="1" vertex="1">
          <mxGeometry x="580" y="878" width="30" height="30" as="geometry" />
        </mxCell>
        <mxCell id="yA_xVkvxDWWqevIZnlIL-5" style="edgeStyle=none;rounded=0;orthogonalLoop=1;jettySize=auto;html=1;exitX=1;exitY=0.5;exitDx=0;exitDy=0;entryX=0;entryY=0.5;entryDx=0;entryDy=0;endArrow=none;endFill=0;" parent="1" source="yA_xVkvxDWWqevIZnlIL-72" target="yA_xVkvxDWWqevIZnlIL-10" edge="1">
          <mxGeometry relative="1" as="geometry">
            <mxPoint x="692" y="789" as="sourcePoint" />
          </mxGeometry>
        </mxCell>
        <mxCell id="yA_xVkvxDWWqevIZnlIL-7" style="edgeStyle=none;rounded=0;orthogonalLoop=1;jettySize=auto;html=1;exitX=1;exitY=0.5;exitDx=0;exitDy=0;entryX=0;entryY=0.5;entryDx=0;entryDy=0;endArrow=none;endFill=0;" parent="1" source="yA_xVkvxDWWqevIZnlIL-74" target="yA_xVkvxDWWqevIZnlIL-14" edge="1">
          <mxGeometry relative="1" as="geometry">
            <mxPoint x="692" y="992.9999999999998" as="sourcePoint" />
          </mxGeometry>
        </mxCell>
        <mxCell id="yA_xVkvxDWWqevIZnlIL-9" style="edgeStyle=none;rounded=0;orthogonalLoop=1;jettySize=auto;html=1;exitX=1;exitY=0.5;exitDx=0;exitDy=0;entryX=0;entryY=0.5;entryDx=0;entryDy=0;fontColor=#000000;endArrow=none;endFill=0;strokeColor=#000000;" parent="1" source="yA_xVkvxDWWqevIZnlIL-10" target="yA_xVkvxDWWqevIZnlIL-56" edge="1">
          <mxGeometry relative="1" as="geometry" />
        </mxCell>
        <mxCell id="yA_xVkvxDWWqevIZnlIL-10" value="" style="ellipse;whiteSpace=wrap;html=1;aspect=fixed;" parent="1" vertex="1">
          <mxGeometry x="783" y="774" width="30" height="30" as="geometry" />
        </mxCell>
        <mxCell id="yA_xVkvxDWWqevIZnlIL-11" style="edgeStyle=none;rounded=0;orthogonalLoop=1;jettySize=auto;html=1;exitX=1;exitY=0.5;exitDx=0;exitDy=0;entryX=0;entryY=0.5;entryDx=0;entryDy=0;fontSize=18;endArrow=none;endFill=0;fontColor=#FF0000;strokeColor=#FF0000;" parent="1" source="yA_xVkvxDWWqevIZnlIL-12" target="yA_xVkvxDWWqevIZnlIL-19" edge="1">
          <mxGeometry relative="1" as="geometry" />
        </mxCell>
        <mxCell id="yA_xVkvxDWWqevIZnlIL-12" value="" style="ellipse;whiteSpace=wrap;html=1;aspect=fixed;fontColor=#FF0000;fillColor=#FF0000;strokeColor=#FF0000;" parent="1" vertex="1">
          <mxGeometry x="783" y="832" width="30" height="30" as="geometry" />
        </mxCell>
        <mxCell id="yA_xVkvxDWWqevIZnlIL-13" style="edgeStyle=none;rounded=0;orthogonalLoop=1;jettySize=auto;html=1;exitX=1;exitY=0.5;exitDx=0;exitDy=0;entryX=0;entryY=0.5;entryDx=0;entryDy=0;fontSize=18;endArrow=none;endFill=0;" parent="1" source="yA_xVkvxDWWqevIZnlIL-14" target="yA_xVkvxDWWqevIZnlIL-63" edge="1">
          <mxGeometry relative="1" as="geometry">
            <mxPoint x="903" y="913.0000000000002" as="targetPoint" />
          </mxGeometry>
        </mxCell>
        <mxCell id="yA_xVkvxDWWqevIZnlIL-14" value="" style="ellipse;whiteSpace=wrap;html=1;aspect=fixed;" parent="1" vertex="1">
          <mxGeometry x="783" y="978" width="30" height="30" as="geometry" />
        </mxCell>
        <mxCell id="yA_xVkvxDWWqevIZnlIL-15" style="rounded=0;orthogonalLoop=1;jettySize=auto;html=1;exitX=1;exitY=0.5;exitDx=0;exitDy=0;entryX=0;entryY=0.5;entryDx=0;entryDy=0;endArrow=none;endFill=0;" parent="1" source="yA_xVkvxDWWqevIZnlIL-17" target="yA_xVkvxDWWqevIZnlIL-81" edge="1">
          <mxGeometry relative="1" as="geometry" />
        </mxCell>
        <mxCell id="yA_xVkvxDWWqevIZnlIL-16" style="rounded=0;orthogonalLoop=1;jettySize=auto;html=1;exitX=1;exitY=0.5;exitDx=0;exitDy=0;entryX=0;entryY=0.5;entryDx=0;entryDy=0;endArrow=none;endFill=0;" parent="1" source="yA_xVkvxDWWqevIZnlIL-17" target="yA_xVkvxDWWqevIZnlIL-83" edge="1">
          <mxGeometry relative="1" as="geometry" />
        </mxCell>
        <mxCell id="yA_xVkvxDWWqevIZnlIL-17" value="" style="ellipse;whiteSpace=wrap;html=1;aspect=fixed;" parent="1" vertex="1">
          <mxGeometry x="340" y="877" width="30" height="30" as="geometry" />
        </mxCell>
        <mxCell id="yA_xVkvxDWWqevIZnlIL-18" style="edgeStyle=none;rounded=0;orthogonalLoop=1;jettySize=auto;html=1;exitX=1;exitY=0.5;exitDx=0;exitDy=0;entryX=0;entryY=0.5;entryDx=0;entryDy=0;fontSize=18;endArrow=none;endFill=0;fontColor=#FF0000;strokeColor=#FF0000;" parent="1" source="yA_xVkvxDWWqevIZnlIL-19" target="yA_xVkvxDWWqevIZnlIL-21" edge="1">
          <mxGeometry relative="1" as="geometry" />
        </mxCell>
        <mxCell id="yA_xVkvxDWWqevIZnlIL-19" value="" style="ellipse;whiteSpace=wrap;html=1;aspect=fixed;fontColor=#FF0000;fillColor=#FF0000;strokeColor=#FF0000;" parent="1" vertex="1">
          <mxGeometry x="901" y="832" width="30" height="30" as="geometry" />
        </mxCell>
        <mxCell id="yA_xVkvxDWWqevIZnlIL-20" style="edgeStyle=none;rounded=0;orthogonalLoop=1;jettySize=auto;html=1;exitX=1;exitY=0.5;exitDx=0;exitDy=0;entryX=0;entryY=0.5;entryDx=0;entryDy=0;fontColor=#FF0000;endArrow=none;endFill=0;strokeColor=#FF0000;" parent="1" source="yA_xVkvxDWWqevIZnlIL-21" target="yA_xVkvxDWWqevIZnlIL-67" edge="1">
          <mxGeometry relative="1" as="geometry" />
        </mxCell>
        <mxCell id="yA_xVkvxDWWqevIZnlIL-21" value="" style="ellipse;whiteSpace=wrap;html=1;aspect=fixed;fontColor=#FF0000;fillColor=#FF0000;strokeColor=#FF0000;" parent="1" vertex="1">
          <mxGeometry x="1049" y="832" width="30" height="30" as="geometry" />
        </mxCell>
        <mxCell id="yA_xVkvxDWWqevIZnlIL-22" value="&lt;span style=&quot;font-family: &amp;#34;georgia&amp;#34; ; font-size: 27px&quot;&gt;&amp;lt;/s&amp;gt;\&amp;lt;s&amp;gt;&lt;/span&gt;" style="text;html=1;align=center;verticalAlign=middle;resizable=0;points=[];autosize=1;strokeColor=none;fillColor=none;" parent="1" vertex="1">
          <mxGeometry x="203" y="883" width="130" height="20" as="geometry" />
        </mxCell>
        <mxCell id="yA_xVkvxDWWqevIZnlIL-25" value="&lt;font style=&quot;font-size: 27px&quot; face=&quot;Georgia&quot;&gt;where&lt;/font&gt;" style="text;html=1;align=center;verticalAlign=middle;resizable=0;points=[];autosize=1;strokeColor=none;fillColor=none;" parent="1" vertex="1">
          <mxGeometry x="500" y="821" width="90" height="20" as="geometry" />
        </mxCell>
        <mxCell id="yA_xVkvxDWWqevIZnlIL-26" value="&lt;font style=&quot;font-size: 27px&quot; face=&quot;Georgia&quot;&gt;where&lt;/font&gt;" style="text;html=1;align=center;verticalAlign=middle;resizable=0;points=[];autosize=1;strokeColor=none;fillColor=none;" parent="1" vertex="1">
          <mxGeometry x="500" y="941" width="90" height="20" as="geometry" />
        </mxCell>
        <mxCell id="yA_xVkvxDWWqevIZnlIL-27" value="&lt;font style=&quot;font-size: 27px&quot; face=&quot;Georgia&quot;&gt;is&lt;/font&gt;" style="text;html=1;align=center;verticalAlign=middle;resizable=0;points=[];autosize=1;fillColor=none;" parent="1" vertex="1">
          <mxGeometry x="610" y="831" width="40" height="20" as="geometry" />
        </mxCell>
        <mxCell id="yA_xVkvxDWWqevIZnlIL-28" value="&lt;font face=&quot;Georgia&quot;&gt;&lt;span style=&quot;font-size: 27px&quot;&gt;is&lt;/span&gt;&lt;/font&gt;" style="text;html=1;align=center;verticalAlign=middle;resizable=0;points=[];autosize=1;fillColor=none;" parent="1" vertex="1">
          <mxGeometry x="610" y="929" width="40" height="20" as="geometry" />
        </mxCell>
        <mxCell id="yA_xVkvxDWWqevIZnlIL-29" value="&lt;font style=&quot;font-size: 27px&quot; face=&quot;Georgia&quot;&gt;the&lt;/font&gt;" style="text;html=1;align=center;verticalAlign=middle;resizable=0;points=[];autosize=1;strokeColor=none;fillColor=none;fontColor=#FF0000;" parent="1" vertex="1">
          <mxGeometry x="704" y="924" width="50" height="20" as="geometry" />
        </mxCell>
        <mxCell id="yA_xVkvxDWWqevIZnlIL-30" value="&lt;font style=&quot;font-size: 27px&quot; face=&quot;Georgia&quot;&gt;the&lt;/font&gt;" style="text;html=1;align=center;verticalAlign=middle;resizable=0;points=[];autosize=1;strokeColor=none;fillColor=none;fontColor=#FF0000;" parent="1" vertex="1">
          <mxGeometry x="704" y="833" width="50" height="20" as="geometry" />
        </mxCell>
        <mxCell id="yA_xVkvxDWWqevIZnlIL-31" value="&lt;font style=&quot;font-size: 27px&quot; face=&quot;Georgia&quot;&gt;these&lt;/font&gt;" style="text;html=1;align=center;verticalAlign=middle;resizable=0;points=[];autosize=1;strokeColor=none;fillColor=none;" parent="1" vertex="1">
          <mxGeometry x="689" y="777" width="80" height="20" as="geometry" />
        </mxCell>
        <mxCell id="yA_xVkvxDWWqevIZnlIL-32" value="&lt;font style=&quot;font-size: 27px&quot; face=&quot;Georgia&quot;&gt;there&lt;/font&gt;" style="text;html=1;align=center;verticalAlign=middle;resizable=0;points=[];autosize=1;strokeColor=none;fillColor=none;" parent="1" vertex="1">
          <mxGeometry x="689" y="979.5" width="80" height="20" as="geometry" />
        </mxCell>
        <mxCell id="yA_xVkvxDWWqevIZnlIL-33" value="&lt;font style=&quot;font-size: 27px&quot; face=&quot;Georgia&quot;&gt;book&lt;/font&gt;" style="text;html=1;align=center;verticalAlign=middle;resizable=0;points=[];autosize=1;strokeColor=none;fillColor=none;fontColor=#000000;" parent="1" vertex="1">
          <mxGeometry x="823" y="764" width="70" height="20" as="geometry" />
        </mxCell>
        <mxCell id="yA_xVkvxDWWqevIZnlIL-34" value="&lt;font style=&quot;font-size: 27px&quot; face=&quot;Georgia&quot;&gt;book&lt;/font&gt;" style="text;html=1;align=center;verticalAlign=middle;resizable=0;points=[];autosize=1;strokeColor=none;fillColor=none;fontColor=#FF0000;" parent="1" vertex="1">
          <mxGeometry x="823" y="821" width="70" height="20" as="geometry" />
        </mxCell>
        <mxCell id="yA_xVkvxDWWqevIZnlIL-35" value="&lt;font style=&quot;font-size: 27px&quot; face=&quot;Georgia&quot;&gt;&amp;lt;/s&amp;gt;\&amp;lt;s&amp;gt;&lt;/font&gt;" style="text;html=1;align=center;verticalAlign=middle;resizable=0;points=[];autosize=1;strokeColor=none;fillColor=none;fontColor=#000000;" parent="1" vertex="1">
          <mxGeometry x="924" y="763" width="130" height="20" as="geometry" />
        </mxCell>
        <mxCell id="yA_xVkvxDWWqevIZnlIL-36" style="edgeStyle=none;rounded=0;orthogonalLoop=1;jettySize=auto;html=1;exitX=1;exitY=0.5;exitDx=0;exitDy=0;entryX=0;entryY=0.5;entryDx=0;entryDy=0;fontSize=18;endArrow=none;endFill=0;" parent="1" source="yA_xVkvxDWWqevIZnlIL-38" target="yA_xVkvxDWWqevIZnlIL-40" edge="1">
          <mxGeometry relative="1" as="geometry" />
        </mxCell>
        <mxCell id="yA_xVkvxDWWqevIZnlIL-37" style="edgeStyle=none;rounded=0;orthogonalLoop=1;jettySize=auto;html=1;exitX=1;exitY=0.5;exitDx=0;exitDy=0;entryX=0;entryY=0.5;entryDx=0;entryDy=0;fontSize=18;endArrow=none;endFill=0;" parent="1" source="yA_xVkvxDWWqevIZnlIL-38" target="yA_xVkvxDWWqevIZnlIL-42" edge="1">
          <mxGeometry relative="1" as="geometry" />
        </mxCell>
        <mxCell id="yA_xVkvxDWWqevIZnlIL-38" value="" style="ellipse;whiteSpace=wrap;html=1;aspect=fixed;fillColor=none;" parent="1" vertex="1">
          <mxGeometry x="1243" y="877" width="30" height="30" as="geometry" />
        </mxCell>
        <mxCell id="yA_xVkvxDWWqevIZnlIL-39" style="edgeStyle=none;rounded=0;orthogonalLoop=1;jettySize=auto;html=1;exitX=1;exitY=0.5;exitDx=0;exitDy=0;entryX=0;entryY=0.5;entryDx=0;entryDy=0;fontSize=18;endArrow=none;endFill=0;" parent="1" source="yA_xVkvxDWWqevIZnlIL-40" target="yA_xVkvxDWWqevIZnlIL-43" edge="1">
          <mxGeometry relative="1" as="geometry" />
        </mxCell>
        <mxCell id="yA_xVkvxDWWqevIZnlIL-40" value="" style="ellipse;whiteSpace=wrap;html=1;aspect=fixed;" parent="1" vertex="1">
          <mxGeometry x="1386" y="836" width="30" height="30" as="geometry" />
        </mxCell>
        <mxCell id="yA_xVkvxDWWqevIZnlIL-41" style="edgeStyle=none;rounded=0;orthogonalLoop=1;jettySize=auto;html=1;exitX=1;exitY=0.5;exitDx=0;exitDy=0;fontSize=18;endArrow=none;endFill=0;entryX=0;entryY=0.5;entryDx=0;entryDy=0;" parent="1" source="yA_xVkvxDWWqevIZnlIL-42" target="yA_xVkvxDWWqevIZnlIL-43" edge="1">
          <mxGeometry relative="1" as="geometry">
            <mxPoint x="1646" y="916" as="targetPoint" />
          </mxGeometry>
        </mxCell>
        <mxCell id="yA_xVkvxDWWqevIZnlIL-42" value="" style="ellipse;whiteSpace=wrap;html=1;aspect=fixed;" parent="1" vertex="1">
          <mxGeometry x="1386" y="911" width="30" height="30" as="geometry" />
        </mxCell>
        <mxCell id="yA_xVkvxDWWqevIZnlIL-43" value="" style="ellipse;whiteSpace=wrap;html=1;aspect=fixed;" parent="1" vertex="1">
          <mxGeometry x="1540" y="876" width="30" height="30" as="geometry" />
        </mxCell>
        <mxCell id="yA_xVkvxDWWqevIZnlIL-44" value="&lt;font style=&quot;font-size: 27px&quot; face=&quot;Georgia&quot;&gt;desk&lt;/font&gt;" style="text;html=1;align=center;verticalAlign=middle;resizable=0;points=[];autosize=1;strokeColor=none;fillColor=none;" parent="1" vertex="1">
          <mxGeometry x="1300" y="836" width="70" height="20" as="geometry" />
        </mxCell>
        <mxCell id="yA_xVkvxDWWqevIZnlIL-45" value="&lt;font style=&quot;font-size: 27px&quot; face=&quot;Georgia&quot;&gt;task&lt;/font&gt;" style="text;html=1;align=center;verticalAlign=middle;resizable=0;points=[];autosize=1;strokeColor=none;fillColor=none;" parent="1" vertex="1">
          <mxGeometry x="1305" y="919" width="60" height="20" as="geometry" />
        </mxCell>
        <mxCell id="yA_xVkvxDWWqevIZnlIL-46" value="&lt;font style=&quot;font-size: 27px&quot; face=&quot;Georgia&quot;&gt;&amp;lt;/s&amp;gt;\&amp;lt;s&amp;gt;&lt;/font&gt;" style="text;html=1;align=center;verticalAlign=middle;resizable=0;points=[];autosize=1;strokeColor=none;fillColor=none;" parent="1" vertex="1">
          <mxGeometry x="1424" y="831" width="130" height="20" as="geometry" />
        </mxCell>
        <mxCell id="yA_xVkvxDWWqevIZnlIL-47" value="&lt;font style=&quot;font-size: 27px&quot; face=&quot;Georgia&quot;&gt;&amp;lt;/s&amp;gt;\&amp;lt;s&amp;gt;&lt;/font&gt;" style="text;html=1;align=center;verticalAlign=middle;resizable=0;points=[];autosize=1;strokeColor=none;fillColor=none;" parent="1" vertex="1">
          <mxGeometry x="1424" y="931" width="130" height="20" as="geometry" />
        </mxCell>
        <mxCell id="yA_xVkvxDWWqevIZnlIL-48" style="edgeStyle=none;rounded=0;orthogonalLoop=1;jettySize=auto;html=1;exitX=1;exitY=0.5;exitDx=0;exitDy=0;fontColor=#FF0000;endArrow=none;endFill=0;strokeColor=#000000;entryX=0;entryY=0.5;entryDx=0;entryDy=0;" parent="1" source="yA_xVkvxDWWqevIZnlIL-49" target="yA_xVkvxDWWqevIZnlIL-67" edge="1">
          <mxGeometry relative="1" as="geometry">
            <mxPoint x="1153" y="908" as="targetPoint" />
          </mxGeometry>
        </mxCell>
        <mxCell id="yA_xVkvxDWWqevIZnlIL-49" value="" style="ellipse;whiteSpace=wrap;html=1;aspect=fixed;fillColor=none;" parent="1" vertex="1">
          <mxGeometry x="1049" y="978" width="30" height="30" as="geometry" />
        </mxCell>
        <mxCell id="yA_xVkvxDWWqevIZnlIL-50" style="edgeStyle=none;rounded=0;orthogonalLoop=1;jettySize=auto;html=1;exitX=1;exitY=0.5;exitDx=0;exitDy=0;fontColor=#FF0000;endArrow=none;endFill=0;strokeColor=#FF0000;entryX=0;entryY=0.5;entryDx=0;entryDy=0;" parent="1" source="yA_xVkvxDWWqevIZnlIL-51" target="yA_xVkvxDWWqevIZnlIL-67" edge="1">
          <mxGeometry relative="1" as="geometry">
            <mxPoint x="1143" y="908" as="targetPoint" />
          </mxGeometry>
        </mxCell>
        <mxCell id="yA_xVkvxDWWqevIZnlIL-51" value="" style="ellipse;whiteSpace=wrap;html=1;aspect=fixed;fontColor=#FF0000;fillColor=#FF0000;strokeColor=#FF0000;" parent="1" vertex="1">
          <mxGeometry x="1049" y="919" width="30" height="30" as="geometry" />
        </mxCell>
        <mxCell id="yA_xVkvxDWWqevIZnlIL-52" style="edgeStyle=none;rounded=0;orthogonalLoop=1;jettySize=auto;html=1;exitX=1;exitY=0.5;exitDx=0;exitDy=0;entryX=0;entryY=0.5;entryDx=0;entryDy=0;fontColor=#FF0000;endArrow=none;endFill=0;strokeColor=#000000;" parent="1" source="yA_xVkvxDWWqevIZnlIL-53" target="yA_xVkvxDWWqevIZnlIL-67" edge="1">
          <mxGeometry relative="1" as="geometry" />
        </mxCell>
        <mxCell id="yA_xVkvxDWWqevIZnlIL-53" value="" style="ellipse;whiteSpace=wrap;html=1;aspect=fixed;fillColor=none;" parent="1" vertex="1">
          <mxGeometry x="1049" y="774" width="30" height="30" as="geometry" />
        </mxCell>
        <mxCell id="yA_xVkvxDWWqevIZnlIL-54" value="&lt;font style=&quot;font-size: 27px&quot; face=&quot;Georgia&quot;&gt;on&lt;/font&gt;" style="text;html=1;align=center;verticalAlign=middle;resizable=0;points=[];autosize=1;strokeColor=none;fillColor=none;fontColor=#000000;" parent="1" vertex="1">
          <mxGeometry x="1103" y="811" width="50" height="20" as="geometry" />
        </mxCell>
        <mxCell id="yA_xVkvxDWWqevIZnlIL-55" style="edgeStyle=none;rounded=0;orthogonalLoop=1;jettySize=auto;html=1;exitX=1;exitY=0.5;exitDx=0;exitDy=0;entryX=0;entryY=0.5;entryDx=0;entryDy=0;fontColor=#000000;endArrow=none;endFill=0;strokeColor=#000000;" parent="1" source="yA_xVkvxDWWqevIZnlIL-56" target="yA_xVkvxDWWqevIZnlIL-53" edge="1">
          <mxGeometry relative="1" as="geometry" />
        </mxCell>
        <mxCell id="yA_xVkvxDWWqevIZnlIL-56" value="" style="ellipse;whiteSpace=wrap;html=1;aspect=fixed;" parent="1" vertex="1">
          <mxGeometry x="901" y="774" width="30" height="30" as="geometry" />
        </mxCell>
        <mxCell id="yA_xVkvxDWWqevIZnlIL-57" style="edgeStyle=none;rounded=0;orthogonalLoop=1;jettySize=auto;html=1;exitX=1;exitY=0.5;exitDx=0;exitDy=0;entryX=0;entryY=0.5;entryDx=0;entryDy=0;fontColor=#FF0000;endArrow=none;endFill=0;strokeColor=#FF0000;" parent="1" source="yA_xVkvxDWWqevIZnlIL-58" target="yA_xVkvxDWWqevIZnlIL-61" edge="1">
          <mxGeometry relative="1" as="geometry" />
        </mxCell>
        <mxCell id="yA_xVkvxDWWqevIZnlIL-58" value="" style="ellipse;whiteSpace=wrap;html=1;aspect=fixed;fontColor=#FF0000;fillColor=#FF0000;strokeColor=#FF0000;" parent="1" vertex="1">
          <mxGeometry x="783" y="919" width="30" height="30" as="geometry" />
        </mxCell>
        <mxCell id="yA_xVkvxDWWqevIZnlIL-59" value="&lt;font style=&quot;font-size: 27px&quot; face=&quot;Georgia&quot;&gt;&amp;lt;/s&amp;gt;\&amp;lt;s&amp;gt;&lt;/font&gt;" style="text;html=1;align=center;verticalAlign=middle;resizable=0;points=[];autosize=1;strokeColor=none;fillColor=none;fontColor=#FF0000;" parent="1" vertex="1">
          <mxGeometry x="924" y="821" width="130" height="20" as="geometry" />
        </mxCell>
        <mxCell id="yA_xVkvxDWWqevIZnlIL-60" style="edgeStyle=none;rounded=0;orthogonalLoop=1;jettySize=auto;html=1;exitX=1;exitY=0.5;exitDx=0;exitDy=0;entryX=0;entryY=0.5;entryDx=0;entryDy=0;fontColor=#FF0000;endArrow=none;endFill=0;strokeColor=#FF0000;" parent="1" source="yA_xVkvxDWWqevIZnlIL-61" target="yA_xVkvxDWWqevIZnlIL-51" edge="1">
          <mxGeometry relative="1" as="geometry" />
        </mxCell>
        <mxCell id="yA_xVkvxDWWqevIZnlIL-61" value="" style="ellipse;whiteSpace=wrap;html=1;aspect=fixed;fontColor=#FF0000;fillColor=#FF0000;strokeColor=#FF0000;" parent="1" vertex="1">
          <mxGeometry x="901" y="919" width="30" height="30" as="geometry" />
        </mxCell>
        <mxCell id="yA_xVkvxDWWqevIZnlIL-62" style="edgeStyle=none;rounded=0;orthogonalLoop=1;jettySize=auto;html=1;exitX=1;exitY=0.5;exitDx=0;exitDy=0;entryX=0;entryY=0.5;entryDx=0;entryDy=0;fontColor=#FF0000;endArrow=none;endFill=0;strokeColor=#000000;" parent="1" source="yA_xVkvxDWWqevIZnlIL-63" target="yA_xVkvxDWWqevIZnlIL-49" edge="1">
          <mxGeometry relative="1" as="geometry" />
        </mxCell>
        <mxCell id="yA_xVkvxDWWqevIZnlIL-63" value="" style="ellipse;whiteSpace=wrap;html=1;aspect=fixed;" parent="1" vertex="1">
          <mxGeometry x="901" y="978" width="30" height="30" as="geometry" />
        </mxCell>
        <mxCell id="yA_xVkvxDWWqevIZnlIL-64" value="&lt;font style=&quot;font-size: 27px&quot; face=&quot;Georgia&quot;&gt;book&lt;/font&gt;" style="text;html=1;align=center;verticalAlign=middle;resizable=0;points=[];autosize=1;strokeColor=none;fillColor=none;fontColor=#FF0000;" parent="1" vertex="1">
          <mxGeometry x="823" y="909" width="70" height="20" as="geometry" />
        </mxCell>
        <mxCell id="yA_xVkvxDWWqevIZnlIL-65" value="&lt;font style=&quot;font-size: 27px&quot; face=&quot;Georgia&quot;&gt;book&lt;/font&gt;" style="text;html=1;align=center;verticalAlign=middle;resizable=0;points=[];autosize=1;strokeColor=none;fillColor=none;fontColor=#000000;" parent="1" vertex="1">
          <mxGeometry x="823" y="969" width="70" height="20" as="geometry" />
        </mxCell>
        <mxCell id="yA_xVkvxDWWqevIZnlIL-66" style="edgeStyle=none;rounded=0;orthogonalLoop=1;jettySize=auto;html=1;exitX=1;exitY=0.5;exitDx=0;exitDy=0;entryX=0;entryY=0.5;entryDx=0;entryDy=0;fontColor=#FF0000;endArrow=none;endFill=0;strokeColor=#000000;" parent="1" source="yA_xVkvxDWWqevIZnlIL-67" target="yA_xVkvxDWWqevIZnlIL-38" edge="1">
          <mxGeometry relative="1" as="geometry" />
        </mxCell>
        <mxCell id="yA_xVkvxDWWqevIZnlIL-67" value="" style="ellipse;whiteSpace=wrap;html=1;aspect=fixed;fillColor=none;" parent="1" vertex="1">
          <mxGeometry x="1164" y="878" width="30" height="30" as="geometry" />
        </mxCell>
        <mxCell id="yA_xVkvxDWWqevIZnlIL-68" value="&lt;font style=&quot;font-size: 27px&quot; face=&quot;Georgia&quot;&gt;&amp;lt;/s&amp;gt;\&amp;lt;s&amp;gt;&lt;/font&gt;" style="text;html=1;align=center;verticalAlign=middle;resizable=0;points=[];autosize=1;strokeColor=none;fillColor=none;fontColor=#000000;" parent="1" vertex="1">
          <mxGeometry x="924" y="968" width="130" height="20" as="geometry" />
        </mxCell>
        <mxCell id="yA_xVkvxDWWqevIZnlIL-69" value="&lt;font style=&quot;font-size: 27px&quot; face=&quot;Georgia&quot;&gt;&amp;lt;/s&amp;gt;\&amp;lt;s&amp;gt;&lt;/font&gt;" style="text;html=1;align=center;verticalAlign=middle;resizable=0;points=[];autosize=1;strokeColor=none;fillColor=none;fontColor=#FF0000;" parent="1" vertex="1">
          <mxGeometry x="924" y="909" width="130" height="20" as="geometry" />
        </mxCell>
        <mxCell id="yA_xVkvxDWWqevIZnlIL-70" value="&lt;font style=&quot;font-size: 27px&quot; face=&quot;Georgia&quot;&gt;the&lt;/font&gt;" style="text;html=1;align=center;verticalAlign=middle;resizable=0;points=[];autosize=1;strokeColor=none;fillColor=none;fontColor=#000000;" parent="1" vertex="1">
          <mxGeometry x="1193" y="865" width="50" height="20" as="geometry" />
        </mxCell>
        <mxCell id="yA_xVkvxDWWqevIZnlIL-71" style="edgeStyle=none;rounded=0;orthogonalLoop=1;jettySize=auto;html=1;exitX=1;exitY=0.5;exitDx=0;exitDy=0;entryX=0;entryY=0.5;entryDx=0;entryDy=0;fontColor=#000000;endArrow=none;endFill=0;strokeColor=#FF0000;" parent="1" source="yA_xVkvxDWWqevIZnlIL-72" target="yA_xVkvxDWWqevIZnlIL-12" edge="1">
          <mxGeometry relative="1" as="geometry" />
        </mxCell>
        <mxCell id="yA_xVkvxDWWqevIZnlIL-72" value="" style="ellipse;whiteSpace=wrap;html=1;aspect=fixed;fontColor=#FF0000;fillColor=#FF0000;strokeColor=#FF0000;" parent="1" vertex="1">
          <mxGeometry x="662" y="806.5" width="30" height="30" as="geometry" />
        </mxCell>
        <mxCell id="yA_xVkvxDWWqevIZnlIL-73" style="edgeStyle=none;rounded=0;orthogonalLoop=1;jettySize=auto;html=1;exitX=1;exitY=0.5;exitDx=0;exitDy=0;entryX=0;entryY=0.5;entryDx=0;entryDy=0;fontColor=#000000;endArrow=none;endFill=0;strokeColor=#FF0000;" parent="1" source="yA_xVkvxDWWqevIZnlIL-74" target="yA_xVkvxDWWqevIZnlIL-58" edge="1">
          <mxGeometry relative="1" as="geometry" />
        </mxCell>
        <mxCell id="yA_xVkvxDWWqevIZnlIL-74" value="" style="ellipse;whiteSpace=wrap;html=1;aspect=fixed;fontColor=#FF0000;fillColor=#FF0000;strokeColor=#FF0000;" parent="1" vertex="1">
          <mxGeometry x="662" y="949.5" width="30" height="30" as="geometry" />
        </mxCell>
        <mxCell id="yA_xVkvxDWWqevIZnlIL-77" value="&lt;font style=&quot;font-size: 27px&quot; face=&quot;Georgia&quot;&gt;on&lt;/font&gt;" style="text;html=1;align=center;verticalAlign=middle;resizable=0;points=[];autosize=1;strokeColor=none;fillColor=none;fontColor=#FF0000;" parent="1" vertex="1">
          <mxGeometry x="1070" y="858" width="50" height="20" as="geometry" />
        </mxCell>
        <mxCell id="yA_xVkvxDWWqevIZnlIL-78" value="&lt;font style=&quot;font-size: 27px&quot; face=&quot;Georgia&quot;&gt;on&lt;/font&gt;" style="text;html=1;align=center;verticalAlign=middle;resizable=0;points=[];autosize=1;strokeColor=none;fillColor=none;fontColor=#FF0000;" parent="1" vertex="1">
          <mxGeometry x="1070" y="898" width="50" height="20" as="geometry" />
        </mxCell>
        <mxCell id="yA_xVkvxDWWqevIZnlIL-79" value="&lt;font style=&quot;font-size: 27px&quot; face=&quot;Georgia&quot;&gt;on&lt;/font&gt;" style="text;html=1;align=center;verticalAlign=middle;resizable=0;points=[];autosize=1;strokeColor=none;fillColor=none;fontColor=#000000;" parent="1" vertex="1">
          <mxGeometry x="1103" y="949" width="50" height="20" as="geometry" />
        </mxCell>
        <mxCell id="yA_xVkvxDWWqevIZnlIL-80" style="rounded=0;orthogonalLoop=1;jettySize=auto;html=1;exitX=1;exitY=0.5;exitDx=0;exitDy=0;entryX=0;entryY=0.5;entryDx=0;entryDy=0;endArrow=none;endFill=0;" parent="1" source="yA_xVkvxDWWqevIZnlIL-81" target="yA_xVkvxDWWqevIZnlIL-4" edge="1">
          <mxGeometry relative="1" as="geometry" />
        </mxCell>
        <mxCell id="yA_xVkvxDWWqevIZnlIL-81" value="" style="ellipse;whiteSpace=wrap;html=1;aspect=fixed;" parent="1" vertex="1">
          <mxGeometry x="450" y="806.5" width="30" height="30" as="geometry" />
        </mxCell>
        <mxCell id="yA_xVkvxDWWqevIZnlIL-82" style="rounded=0;orthogonalLoop=1;jettySize=auto;html=1;exitX=1;exitY=0.5;exitDx=0;exitDy=0;entryX=0;entryY=0.5;entryDx=0;entryDy=0;endArrow=none;endFill=0;" parent="1" source="yA_xVkvxDWWqevIZnlIL-83" target="yA_xVkvxDWWqevIZnlIL-4" edge="1">
          <mxGeometry relative="1" as="geometry" />
        </mxCell>
        <mxCell id="yA_xVkvxDWWqevIZnlIL-83" value="" style="ellipse;whiteSpace=wrap;html=1;aspect=fixed;" parent="1" vertex="1">
          <mxGeometry x="450" y="949.5" width="30" height="30" as="geometry" />
        </mxCell>
        <mxCell id="yA_xVkvxDWWqevIZnlIL-84" value="&lt;font style=&quot;font-size: 27px&quot; face=&quot;Georgia&quot;&gt;and&lt;/font&gt;" style="text;html=1;align=center;verticalAlign=middle;resizable=0;points=[];autosize=1;strokeColor=none;fillColor=none;" parent="1" vertex="1">
          <mxGeometry x="360" y="833" width="60" height="20" as="geometry" />
        </mxCell>
        <mxCell id="yA_xVkvxDWWqevIZnlIL-85" value="&lt;font style=&quot;font-size: 27px&quot; face=&quot;Georgia&quot;&gt;ant&lt;/font&gt;" style="text;html=1;align=center;verticalAlign=middle;resizable=0;points=[];autosize=1;strokeColor=none;fillColor=none;" parent="1" vertex="1">
          <mxGeometry x="365" y="933" width="50" height="20" as="geometry" />
        </mxCell>
        <mxCell id="PzH0wcXM0nQExKtc6Y5--1" value="" style="ellipse;whiteSpace=wrap;html=1;aspect=fixed;fontColor=#FF0000;fillColor=none;strokeColor=#000000;" parent="1" vertex="1">
          <mxGeometry x="1164" y="1423.5" width="30" height="30" as="geometry" />
        </mxCell>
        <mxCell id="PzH0wcXM0nQExKtc6Y5--2" style="rounded=0;orthogonalLoop=1;jettySize=auto;html=1;exitX=1;exitY=0.5;exitDx=0;exitDy=0;entryX=0;entryY=0.5;entryDx=0;entryDy=0;endArrow=none;endFill=0;fontColor=#FF0000;strokeColor=#000000;" parent="1" source="PzH0wcXM0nQExKtc6Y5--1" target="PzH0wcXM0nQExKtc6Y5--4" edge="1">
          <mxGeometry relative="1" as="geometry">
            <mxPoint x="1213.9999999999995" y="1403.4999999999998" as="sourcePoint" />
          </mxGeometry>
        </mxCell>
        <mxCell id="PzH0wcXM0nQExKtc6Y5--3" style="edgeStyle=none;rounded=0;orthogonalLoop=1;jettySize=auto;html=1;exitX=1;exitY=0.5;exitDx=0;exitDy=0;entryX=0;entryY=0.5;entryDx=0;entryDy=0;endArrow=none;endFill=0;fontColor=#FF0000;strokeColor=#000000;" parent="1" source="PzH0wcXM0nQExKtc6Y5--4" target="PzH0wcXM0nQExKtc6Y5--7" edge="1">
          <mxGeometry relative="1" as="geometry" />
        </mxCell>
        <mxCell id="PzH0wcXM0nQExKtc6Y5--4" value="" style="ellipse;whiteSpace=wrap;html=1;aspect=fixed;fontColor=#FF0000;fillColor=none;strokeColor=#000000;" parent="1" vertex="1">
          <mxGeometry x="1246" y="1423.5" width="30" height="30" as="geometry" />
        </mxCell>
        <mxCell id="PzH0wcXM0nQExKtc6Y5--5" style="edgeStyle=none;rounded=0;orthogonalLoop=1;jettySize=auto;html=1;exitX=1;exitY=0.5;exitDx=0;exitDy=0;entryX=0;entryY=0.5;entryDx=0;entryDy=0;fontSize=18;endArrow=none;endFill=0;" parent="1" source="PzH0wcXM0nQExKtc6Y5--7" target="PzH0wcXM0nQExKtc6Y5--9" edge="1">
          <mxGeometry relative="1" as="geometry" />
        </mxCell>
        <mxCell id="PzH0wcXM0nQExKtc6Y5--6" style="edgeStyle=none;rounded=0;orthogonalLoop=1;jettySize=auto;html=1;exitX=1;exitY=0.5;exitDx=0;exitDy=0;entryX=0;entryY=0.5;entryDx=0;entryDy=0;fontSize=18;endArrow=none;endFill=0;" parent="1" source="PzH0wcXM0nQExKtc6Y5--7" target="PzH0wcXM0nQExKtc6Y5--11" edge="1">
          <mxGeometry relative="1" as="geometry" />
        </mxCell>
        <mxCell id="PzH0wcXM0nQExKtc6Y5--7" value="" style="ellipse;whiteSpace=wrap;html=1;aspect=fixed;fontColor=#FF0000;fillColor=none;strokeColor=#000000;" parent="1" vertex="1">
          <mxGeometry x="1335" y="1423.5" width="30" height="30" as="geometry" />
        </mxCell>
        <mxCell id="PzH0wcXM0nQExKtc6Y5--8" style="edgeStyle=none;rounded=0;orthogonalLoop=1;jettySize=auto;html=1;exitX=1;exitY=0.5;exitDx=0;exitDy=0;entryX=0;entryY=0.5;entryDx=0;entryDy=0;fontSize=18;endArrow=none;endFill=0;" parent="1" source="PzH0wcXM0nQExKtc6Y5--9" target="PzH0wcXM0nQExKtc6Y5--12" edge="1">
          <mxGeometry relative="1" as="geometry" />
        </mxCell>
        <mxCell id="PzH0wcXM0nQExKtc6Y5--9" value="" style="ellipse;whiteSpace=wrap;html=1;aspect=fixed;" parent="1" vertex="1">
          <mxGeometry x="1454" y="1388.5" width="30" height="30" as="geometry" />
        </mxCell>
        <mxCell id="PzH0wcXM0nQExKtc6Y5--10" style="edgeStyle=none;rounded=0;orthogonalLoop=1;jettySize=auto;html=1;exitX=1;exitY=0.5;exitDx=0;exitDy=0;fontSize=18;endArrow=none;endFill=0;entryX=0;entryY=0.5;entryDx=0;entryDy=0;" parent="1" source="PzH0wcXM0nQExKtc6Y5--11" target="PzH0wcXM0nQExKtc6Y5--12" edge="1">
          <mxGeometry relative="1" as="geometry">
            <mxPoint x="1764" y="1468.5" as="targetPoint" />
          </mxGeometry>
        </mxCell>
        <mxCell id="PzH0wcXM0nQExKtc6Y5--11" value="" style="ellipse;whiteSpace=wrap;html=1;aspect=fixed;" parent="1" vertex="1">
          <mxGeometry x="1454" y="1468.5" width="30" height="30" as="geometry" />
        </mxCell>
        <mxCell id="PzH0wcXM0nQExKtc6Y5--12" value="" style="ellipse;whiteSpace=wrap;html=1;aspect=fixed;" parent="1" vertex="1">
          <mxGeometry x="1575" y="1423.5" width="30" height="30" as="geometry" />
        </mxCell>
        <mxCell id="PzH0wcXM0nQExKtc6Y5--13" value="&lt;font style=&quot;font-size: 27px&quot; face=&quot;Georgia&quot;&gt;on&lt;/font&gt;" style="text;html=1;align=center;verticalAlign=middle;resizable=0;points=[];autosize=1;strokeColor=none;fillColor=none;fontColor=#000000;" parent="1" vertex="1">
          <mxGeometry x="1196" y="1413.5" width="50" height="20" as="geometry" />
        </mxCell>
        <mxCell id="PzH0wcXM0nQExKtc6Y5--14" value="&lt;font style=&quot;font-size: 27px&quot; face=&quot;Georgia&quot;&gt;the&lt;/font&gt;" style="text;html=1;align=center;verticalAlign=middle;resizable=0;points=[];autosize=1;strokeColor=none;fillColor=none;fontColor=#000000;" parent="1" vertex="1">
          <mxGeometry x="1280" y="1410.5" width="50" height="20" as="geometry" />
        </mxCell>
        <mxCell id="PzH0wcXM0nQExKtc6Y5--15" value="&lt;font style=&quot;font-size: 27px&quot; face=&quot;Georgia&quot;&gt;desk&lt;/font&gt;" style="text;html=1;align=center;verticalAlign=middle;resizable=0;points=[];autosize=1;strokeColor=none;fillColor=none;" parent="1" vertex="1">
          <mxGeometry x="1360" y="1393.5" width="70" height="20" as="geometry" />
        </mxCell>
        <mxCell id="PzH0wcXM0nQExKtc6Y5--16" value="&lt;font style=&quot;font-size: 27px&quot; face=&quot;Georgia&quot;&gt;task&lt;/font&gt;" style="text;html=1;align=center;verticalAlign=middle;resizable=0;points=[];autosize=1;strokeColor=none;fillColor=none;" parent="1" vertex="1">
          <mxGeometry x="1370" y="1468.5" width="60" height="20" as="geometry" />
        </mxCell>
        <mxCell id="PzH0wcXM0nQExKtc6Y5--17" value="&lt;font style=&quot;font-size: 27px&quot; face=&quot;Georgia&quot;&gt;&amp;lt;/s&amp;gt;&lt;/font&gt;" style="text;html=1;align=center;verticalAlign=middle;resizable=0;points=[];autosize=1;strokeColor=none;fillColor=none;" parent="1" vertex="1">
          <mxGeometry x="1500" y="1390.5" width="70" height="20" as="geometry" />
        </mxCell>
        <mxCell id="PzH0wcXM0nQExKtc6Y5--18" value="&lt;font style=&quot;font-size: 27px&quot; face=&quot;Georgia&quot;&gt;&amp;lt;/s&amp;gt;&lt;/font&gt;" style="text;html=1;align=center;verticalAlign=middle;resizable=0;points=[];autosize=1;strokeColor=none;fillColor=none;" parent="1" vertex="1">
          <mxGeometry x="1500" y="1470.5" width="70" height="20" as="geometry" />
        </mxCell>
        <mxCell id="PzH0wcXM0nQExKtc6Y5--19" style="edgeStyle=none;rounded=0;orthogonalLoop=1;jettySize=auto;html=1;exitX=1;exitY=0.5;exitDx=0;exitDy=0;entryX=0;entryY=0.5;entryDx=0;entryDy=0;fontFamily=Georgia;fontSize=27;fontColor=#000000;endArrow=none;endFill=0;strokeColor=#000000;" parent="1" source="PzH0wcXM0nQExKtc6Y5--20" target="PzH0wcXM0nQExKtc6Y5--1" edge="1">
          <mxGeometry relative="1" as="geometry" />
        </mxCell>
        <mxCell id="PzH0wcXM0nQExKtc6Y5--20" value="" style="ellipse;whiteSpace=wrap;html=1;aspect=fixed;" parent="1" vertex="1">
          <mxGeometry x="1080" y="1423.5" width="30" height="30" as="geometry" />
        </mxCell>
        <mxCell id="PzH0wcXM0nQExKtc6Y5--21" value="&lt;font style=&quot;font-size: 27px&quot; face=&quot;Georgia&quot;&gt;&amp;lt;s&amp;gt;&lt;/font&gt;" style="text;html=1;align=center;verticalAlign=middle;resizable=0;points=[];autosize=1;strokeColor=none;fillColor=none;" parent="1" vertex="1">
          <mxGeometry x="1109" y="1412.5" width="60" height="20" as="geometry" />
        </mxCell>
        <mxCell id="PzH0wcXM0nQExKtc6Y5--22" value="" style="rounded=1;whiteSpace=wrap;html=1;fontFamily=Georgia;fontSize=27;fontColor=#000000;strokeColor=#000000;fillColor=none;dashed=1;" parent="1" vertex="1">
          <mxGeometry x="152" y="1141" width="798" height="235" as="geometry" />
        </mxCell>
        <mxCell id="PzH0wcXM0nQExKtc6Y5--23" value="" style="shape=flexArrow;endArrow=classic;html=1;rounded=0;fontFamily=Georgia;fontSize=27;fontColor=#000000;strokeColor=#000000;width=10.833333333333334;endSize=4.508333333333334;" parent="1" edge="1">
          <mxGeometry width="50" height="50" relative="1" as="geometry">
            <mxPoint x="960" y="1594.81" as="sourcePoint" />
            <mxPoint x="1000" y="1595.31" as="targetPoint" />
          </mxGeometry>
        </mxCell>
        <mxCell id="PzH0wcXM0nQExKtc6Y5--25" value="GNN" style="rounded=1;whiteSpace=wrap;html=1;fontFamily=Georgia;fontSize=27;fontColor=#000000;strokeColor=#000000;fillColor=none;" parent="1" vertex="1">
          <mxGeometry x="1003" y="1566" width="182.5" height="60" as="geometry" />
        </mxCell>
        <mxCell id="PzH0wcXM0nQExKtc6Y5--26" value="LatticeRNN" style="rounded=1;whiteSpace=wrap;html=1;fontFamily=Georgia;fontSize=27;fontColor=#000000;strokeColor=#000000;fillColor=none;" parent="1" vertex="1">
          <mxGeometry x="1006" y="1233.5" width="180" height="60" as="geometry" />
        </mxCell>
        <mxCell id="PzH0wcXM0nQExKtc6Y5--29" value="" style="endArrow=open;html=1;rounded=0;fontFamily=Georgia;fontSize=27;fontColor=#000000;strokeColor=#000000;endFill=0;" parent="1" edge="1">
          <mxGeometry width="50" height="50" relative="1" as="geometry">
            <mxPoint x="1095" y="1561" as="sourcePoint" />
            <mxPoint x="1095" y="1461" as="targetPoint" />
          </mxGeometry>
        </mxCell>
        <mxCell id="PzH0wcXM0nQExKtc6Y5--30" value="" style="endArrow=open;html=1;rounded=0;fontFamily=Georgia;fontSize=27;fontColor=#000000;strokeColor=#000000;endFill=0;" parent="1" edge="1">
          <mxGeometry width="50" height="50" relative="1" as="geometry">
            <mxPoint x="1095" y="1301" as="sourcePoint" />
            <mxPoint x="1095" y="1414" as="targetPoint" />
          </mxGeometry>
        </mxCell>
        <mxCell id="PzH0wcXM0nQExKtc6Y5--31" value="&lt;font color=&quot;#000000&quot; style=&quot;font-size: 24px&quot;&gt;Initialize&lt;/font&gt;" style="text;html=1;align=center;verticalAlign=middle;resizable=0;points=[];autosize=1;strokeColor=none;fillColor=none;fontColor=#FF0000;" parent="1" vertex="1">
          <mxGeometry x="1093" y="1341" width="100" height="20" as="geometry" />
        </mxCell>
        <mxCell id="PzH0wcXM0nQExKtc6Y5--32" value="&lt;font color=&quot;#000000&quot; style=&quot;font-size: 24px&quot;&gt;Initialize&lt;/font&gt;" style="text;html=1;align=center;verticalAlign=middle;resizable=0;points=[];autosize=1;strokeColor=none;fillColor=none;fontColor=#FF0000;" parent="1" vertex="1">
          <mxGeometry x="1094" y="1500.5" width="100" height="20" as="geometry" />
        </mxCell>
        <mxCell id="PzH0wcXM0nQExKtc6Y5--33" style="rounded=0;orthogonalLoop=1;jettySize=auto;html=1;exitX=1;exitY=0.5;exitDx=0;exitDy=0;entryX=0;entryY=0.5;entryDx=0;entryDy=0;endArrow=none;endFill=0;fontColor=#000000;strokeColor=#000000;fillColor=#e51400;" parent="1" source="PzH0wcXM0nQExKtc6Y5--35" target="PzH0wcXM0nQExKtc6Y5--38" edge="1">
          <mxGeometry relative="1" as="geometry" />
        </mxCell>
        <mxCell id="PzH0wcXM0nQExKtc6Y5--34" style="edgeStyle=none;rounded=0;orthogonalLoop=1;jettySize=auto;html=1;exitX=1;exitY=0.5;exitDx=0;exitDy=0;entryX=0;entryY=0.5;entryDx=0;entryDy=0;endArrow=none;endFill=0;fontColor=#000000;strokeColor=#000000;fillColor=#e51400;" parent="1" source="PzH0wcXM0nQExKtc6Y5--35" target="PzH0wcXM0nQExKtc6Y5--41" edge="1">
          <mxGeometry relative="1" as="geometry">
            <mxPoint x="495" y="1298.5" as="sourcePoint" />
          </mxGeometry>
        </mxCell>
        <mxCell id="PzH0wcXM0nQExKtc6Y5--35" value="" style="ellipse;whiteSpace=wrap;html=1;aspect=fixed;fillColor=none;" parent="1" vertex="1">
          <mxGeometry x="465" y="1243.5" width="30" height="30" as="geometry" />
        </mxCell>
        <mxCell id="PzH0wcXM0nQExKtc6Y5--36" style="edgeStyle=none;rounded=0;orthogonalLoop=1;jettySize=auto;html=1;exitX=1;exitY=0.5;exitDx=0;exitDy=0;entryX=0;entryY=0.5;entryDx=0;entryDy=0;endArrow=none;endFill=0;" parent="1" source="PzH0wcXM0nQExKtc6Y5--38" target="PzH0wcXM0nQExKtc6Y5--43" edge="1">
          <mxGeometry relative="1" as="geometry" />
        </mxCell>
        <mxCell id="PzH0wcXM0nQExKtc6Y5--37" style="edgeStyle=none;rounded=0;orthogonalLoop=1;jettySize=auto;html=1;exitX=1;exitY=0.5;exitDx=0;exitDy=0;entryX=0;entryY=0.5;entryDx=0;entryDy=0;endArrow=none;endFill=0;strokeColor=#000000;fillColor=#e51400;" parent="1" source="PzH0wcXM0nQExKtc6Y5--38" target="PzH0wcXM0nQExKtc6Y5--45" edge="1">
          <mxGeometry relative="1" as="geometry" />
        </mxCell>
        <mxCell id="PzH0wcXM0nQExKtc6Y5--38" value="" style="ellipse;whiteSpace=wrap;html=1;aspect=fixed;fillColor=none;fontColor=#000000;" parent="1" vertex="1">
          <mxGeometry x="560" y="1203.5" width="30" height="30" as="geometry" />
        </mxCell>
        <mxCell id="PzH0wcXM0nQExKtc6Y5--39" style="edgeStyle=none;rounded=0;orthogonalLoop=1;jettySize=auto;html=1;exitX=1;exitY=0.5;exitDx=0;exitDy=0;endArrow=none;endFill=0;entryX=0;entryY=0.5;entryDx=0;entryDy=0;strokeColor=#000000;fillColor=#e51400;" parent="1" source="PzH0wcXM0nQExKtc6Y5--41" target="PzH0wcXM0nQExKtc6Y5--45" edge="1">
          <mxGeometry relative="1" as="geometry">
            <mxPoint x="760" y="1283.5" as="targetPoint" />
          </mxGeometry>
        </mxCell>
        <mxCell id="PzH0wcXM0nQExKtc6Y5--40" style="edgeStyle=none;rounded=0;orthogonalLoop=1;jettySize=auto;html=1;exitX=1;exitY=0.5;exitDx=0;exitDy=0;entryX=0;entryY=0.5;entryDx=0;entryDy=0;endArrow=none;endFill=0;" parent="1" source="PzH0wcXM0nQExKtc6Y5--41" target="PzH0wcXM0nQExKtc6Y5--47" edge="1">
          <mxGeometry relative="1" as="geometry" />
        </mxCell>
        <mxCell id="PzH0wcXM0nQExKtc6Y5--41" value="" style="ellipse;whiteSpace=wrap;html=1;aspect=fixed;fillColor=none;fontColor=#000000;" parent="1" vertex="1">
          <mxGeometry x="560" y="1283.5" width="30" height="30" as="geometry" />
        </mxCell>
        <mxCell id="PzH0wcXM0nQExKtc6Y5--42" style="edgeStyle=none;rounded=0;orthogonalLoop=1;jettySize=auto;html=1;exitX=1;exitY=0.5;exitDx=0;exitDy=0;entryX=0;entryY=0.5;entryDx=0;entryDy=0;fontSize=18;endArrow=none;endFill=0;" parent="1" source="PzH0wcXM0nQExKtc6Y5--43" target="PzH0wcXM0nQExKtc6Y5--52" edge="1">
          <mxGeometry relative="1" as="geometry" />
        </mxCell>
        <mxCell id="PzH0wcXM0nQExKtc6Y5--43" value="" style="ellipse;whiteSpace=wrap;html=1;aspect=fixed;" parent="1" vertex="1">
          <mxGeometry x="690" y="1163.5" width="30" height="30" as="geometry" />
        </mxCell>
        <mxCell id="PzH0wcXM0nQExKtc6Y5--44" style="edgeStyle=none;rounded=0;orthogonalLoop=1;jettySize=auto;html=1;exitX=1;exitY=0.5;exitDx=0;exitDy=0;entryX=0;entryY=0.5;entryDx=0;entryDy=0;fontSize=18;endArrow=none;endFill=0;" parent="1" source="PzH0wcXM0nQExKtc6Y5--45" target="PzH0wcXM0nQExKtc6Y5--52" edge="1">
          <mxGeometry relative="1" as="geometry" />
        </mxCell>
        <mxCell id="PzH0wcXM0nQExKtc6Y5--45" value="" style="ellipse;whiteSpace=wrap;html=1;aspect=fixed;fillColor=none;" parent="1" vertex="1">
          <mxGeometry x="690" y="1243.5" width="30" height="30" as="geometry" />
        </mxCell>
        <mxCell id="PzH0wcXM0nQExKtc6Y5--46" style="edgeStyle=none;rounded=0;orthogonalLoop=1;jettySize=auto;html=1;exitX=1;exitY=0.5;exitDx=0;exitDy=0;entryX=0;entryY=0.5;entryDx=0;entryDy=0;fontSize=18;endArrow=none;endFill=0;" parent="1" source="PzH0wcXM0nQExKtc6Y5--47" target="PzH0wcXM0nQExKtc6Y5--52" edge="1">
          <mxGeometry relative="1" as="geometry">
            <mxPoint x="810" y="1298.5" as="targetPoint" />
          </mxGeometry>
        </mxCell>
        <mxCell id="PzH0wcXM0nQExKtc6Y5--47" value="" style="ellipse;whiteSpace=wrap;html=1;aspect=fixed;" parent="1" vertex="1">
          <mxGeometry x="690" y="1323.5" width="30" height="30" as="geometry" />
        </mxCell>
        <mxCell id="PzH0wcXM0nQExKtc6Y5--48" style="edgeStyle=none;rounded=0;orthogonalLoop=1;jettySize=auto;html=1;exitX=1;exitY=0.5;exitDx=0;exitDy=0;entryX=0;entryY=0.5;entryDx=0;entryDy=0;fontSize=18;endArrow=none;endFill=0;" parent="1" source="PzH0wcXM0nQExKtc6Y5--50" target="PzH0wcXM0nQExKtc6Y5--35" edge="1">
          <mxGeometry relative="1" as="geometry" />
        </mxCell>
        <mxCell id="PzH0wcXM0nQExKtc6Y5--49" style="rounded=0;orthogonalLoop=1;jettySize=auto;html=1;exitX=1;exitY=0.5;exitDx=0;exitDy=0;entryX=0;entryY=0.5;entryDx=0;entryDy=0;fontFamily=Georgia;fontSize=27;endArrow=none;endFill=0;" parent="1" source="PzH0wcXM0nQExKtc6Y5--68" target="PzH0wcXM0nQExKtc6Y5--35" edge="1">
          <mxGeometry relative="1" as="geometry">
            <mxPoint x="465" y="1298.5" as="targetPoint" />
          </mxGeometry>
        </mxCell>
        <mxCell id="PzH0wcXM0nQExKtc6Y5--50" value="" style="ellipse;whiteSpace=wrap;html=1;aspect=fixed;" parent="1" vertex="1">
          <mxGeometry x="345" y="1203.5" width="30" height="30" as="geometry" />
        </mxCell>
        <mxCell id="PzH0wcXM0nQExKtc6Y5--51" style="edgeStyle=none;rounded=0;orthogonalLoop=1;jettySize=auto;html=1;exitX=1;exitY=0.5;exitDx=0;exitDy=0;entryX=0;entryY=0.5;entryDx=0;entryDy=0;fontSize=18;endArrow=none;endFill=0;" parent="1" source="PzH0wcXM0nQExKtc6Y5--52" target="PzH0wcXM0nQExKtc6Y5--53" edge="1">
          <mxGeometry relative="1" as="geometry" />
        </mxCell>
        <mxCell id="PzH0wcXM0nQExKtc6Y5--52" value="" style="ellipse;whiteSpace=wrap;html=1;aspect=fixed;" parent="1" vertex="1">
          <mxGeometry x="820" y="1243.5" width="30" height="30" as="geometry" />
        </mxCell>
        <mxCell id="PzH0wcXM0nQExKtc6Y5--53" value="" style="ellipse;whiteSpace=wrap;html=1;aspect=fixed;" parent="1" vertex="1">
          <mxGeometry x="908" y="1243.5" width="30" height="30" as="geometry" />
        </mxCell>
        <mxCell id="PzH0wcXM0nQExKtc6Y5--54" value="&lt;font style=&quot;font-size: 27px&quot; face=&quot;Georgia&quot;&gt;&amp;lt;s&amp;gt;&lt;/font&gt;" style="text;html=1;align=center;verticalAlign=middle;resizable=0;points=[];autosize=1;strokeColor=none;fillColor=none;" parent="1" vertex="1">
          <mxGeometry x="193" y="1233.5" width="60" height="20" as="geometry" />
        </mxCell>
        <mxCell id="PzH0wcXM0nQExKtc6Y5--56" value="&lt;font style=&quot;font-size: 27px&quot; face=&quot;Georgia&quot;&gt;where&lt;/font&gt;" style="text;html=1;align=center;verticalAlign=middle;resizable=0;points=[];autosize=1;strokeColor=none;fillColor=none;" parent="1" vertex="1">
          <mxGeometry x="390" y="1203.5" width="90" height="20" as="geometry" />
        </mxCell>
        <mxCell id="PzH0wcXM0nQExKtc6Y5--57" value="&lt;font style=&quot;font-size: 27px&quot; face=&quot;Georgia&quot;&gt;where&lt;/font&gt;" style="text;html=1;align=center;verticalAlign=middle;resizable=0;points=[];autosize=1;strokeColor=none;fillColor=none;" parent="1" vertex="1">
          <mxGeometry x="390" y="1288.5" width="90" height="20" as="geometry" />
        </mxCell>
        <mxCell id="PzH0wcXM0nQExKtc6Y5--58" value="&lt;font style=&quot;font-size: 27px&quot; face=&quot;Georgia&quot;&gt;is&lt;/font&gt;" style="text;html=1;align=center;verticalAlign=middle;resizable=0;points=[];autosize=1;strokeColor=none;fillColor=none;fontColor=#000000;" parent="1" vertex="1">
          <mxGeometry x="509" y="1203.5" width="40" height="20" as="geometry" />
        </mxCell>
        <mxCell id="PzH0wcXM0nQExKtc6Y5--59" value="&lt;font style=&quot;font-size: 27px&quot; face=&quot;Georgia&quot;&gt;is&lt;/font&gt;" style="text;html=1;align=center;verticalAlign=middle;resizable=0;points=[];autosize=1;strokeColor=none;fillColor=none;fontColor=#000000;" parent="1" vertex="1">
          <mxGeometry x="509" y="1288.5" width="40" height="20" as="geometry" />
        </mxCell>
        <mxCell id="PzH0wcXM0nQExKtc6Y5--60" value="&lt;font style=&quot;font-size: 27px&quot; face=&quot;Georgia&quot;&gt;the&lt;/font&gt;" style="text;html=1;align=center;verticalAlign=middle;resizable=0;points=[];autosize=1;strokeColor=none;fillColor=none;fontColor=#000000;" parent="1" vertex="1">
          <mxGeometry x="620" y="1283.5" width="50" height="20" as="geometry" />
        </mxCell>
        <mxCell id="PzH0wcXM0nQExKtc6Y5--61" value="&lt;font style=&quot;font-size: 27px&quot; face=&quot;Georgia&quot;&gt;the&lt;/font&gt;" style="text;html=1;align=center;verticalAlign=middle;resizable=0;points=[];autosize=1;strokeColor=none;fillColor=none;fontColor=#000000;" parent="1" vertex="1">
          <mxGeometry x="620" y="1213.5" width="50" height="20" as="geometry" />
        </mxCell>
        <mxCell id="PzH0wcXM0nQExKtc6Y5--62" value="&lt;font style=&quot;font-size: 27px&quot; face=&quot;Georgia&quot;&gt;these&lt;/font&gt;" style="text;html=1;align=center;verticalAlign=middle;resizable=0;points=[];autosize=1;strokeColor=none;fillColor=none;" parent="1" vertex="1">
          <mxGeometry x="599" y="1163.5" width="80" height="20" as="geometry" />
        </mxCell>
        <mxCell id="PzH0wcXM0nQExKtc6Y5--63" value="&lt;font style=&quot;font-size: 27px&quot; face=&quot;Georgia&quot;&gt;there&lt;/font&gt;" style="text;html=1;align=center;verticalAlign=middle;resizable=0;points=[];autosize=1;strokeColor=none;fillColor=none;fontColor=#000000;" parent="1" vertex="1">
          <mxGeometry x="599" y="1328.5" width="80" height="20" as="geometry" />
        </mxCell>
        <mxCell id="PzH0wcXM0nQExKtc6Y5--64" value="&lt;font style=&quot;font-size: 27px&quot; face=&quot;Georgia&quot;&gt;book&lt;/font&gt;" style="text;html=1;align=center;verticalAlign=middle;resizable=0;points=[];autosize=1;strokeColor=none;fillColor=none;" parent="1" vertex="1">
          <mxGeometry x="755" y="1183.5" width="70" height="20" as="geometry" />
        </mxCell>
        <mxCell id="PzH0wcXM0nQExKtc6Y5--65" value="&lt;font style=&quot;font-size: 27px&quot; face=&quot;Georgia&quot;&gt;book&lt;/font&gt;" style="text;html=1;align=center;verticalAlign=middle;resizable=0;points=[];autosize=1;strokeColor=none;fillColor=none;" parent="1" vertex="1">
          <mxGeometry x="720" y="1233.5" width="70" height="20" as="geometry" />
        </mxCell>
        <mxCell id="PzH0wcXM0nQExKtc6Y5--66" value="&lt;font style=&quot;font-size: 27px&quot; face=&quot;Georgia&quot;&gt;&amp;lt;/s&amp;gt;&lt;/font&gt;" style="text;html=1;align=center;verticalAlign=middle;resizable=0;points=[];autosize=1;strokeColor=none;fillColor=none;" parent="1" vertex="1">
          <mxGeometry x="838" y="1228.5" width="70" height="20" as="geometry" />
        </mxCell>
        <mxCell id="PzH0wcXM0nQExKtc6Y5--67" value="&lt;font style=&quot;font-size: 27px&quot; face=&quot;Georgia&quot;&gt;book&lt;br&gt;&lt;/font&gt;" style="text;html=1;align=center;verticalAlign=middle;resizable=0;points=[];autosize=1;strokeColor=none;fillColor=none;" parent="1" vertex="1">
          <mxGeometry x="755" y="1313.5" width="70" height="20" as="geometry" />
        </mxCell>
        <mxCell id="PzH0wcXM0nQExKtc6Y5--68" value="" style="ellipse;whiteSpace=wrap;html=1;aspect=fixed;" parent="1" vertex="1">
          <mxGeometry x="345" y="1283.5" width="30" height="30" as="geometry" />
        </mxCell>
        <mxCell id="PzH0wcXM0nQExKtc6Y5--69" style="rounded=0;orthogonalLoop=1;jettySize=auto;html=1;exitX=1;exitY=0.5;exitDx=0;exitDy=0;entryX=0;entryY=0.5;entryDx=0;entryDy=0;endArrow=none;endFill=0;" parent="1" source="PzH0wcXM0nQExKtc6Y5--71" target="PzH0wcXM0nQExKtc6Y5--50" edge="1">
          <mxGeometry relative="1" as="geometry" />
        </mxCell>
        <mxCell id="PzH0wcXM0nQExKtc6Y5--70" style="rounded=0;orthogonalLoop=1;jettySize=auto;html=1;exitX=1;exitY=0.5;exitDx=0;exitDy=0;entryX=0;entryY=0.5;entryDx=0;entryDy=0;endArrow=none;endFill=0;" parent="1" source="PzH0wcXM0nQExKtc6Y5--71" target="PzH0wcXM0nQExKtc6Y5--68" edge="1">
          <mxGeometry relative="1" as="geometry" />
        </mxCell>
        <mxCell id="PzH0wcXM0nQExKtc6Y5--71" value="" style="ellipse;whiteSpace=wrap;html=1;aspect=fixed;" parent="1" vertex="1">
          <mxGeometry x="245" y="1243.5" width="30" height="30" as="geometry" />
        </mxCell>
        <mxCell id="PzH0wcXM0nQExKtc6Y5--72" value="&lt;font style=&quot;font-size: 27px&quot; face=&quot;Georgia&quot;&gt;and&lt;/font&gt;" style="text;html=1;align=center;verticalAlign=middle;resizable=0;points=[];autosize=1;strokeColor=none;fillColor=none;" parent="1" vertex="1">
          <mxGeometry x="275" y="1208.5" width="60" height="20" as="geometry" />
        </mxCell>
        <mxCell id="PzH0wcXM0nQExKtc6Y5--73" value="&lt;font style=&quot;font-size: 27px&quot; face=&quot;Georgia&quot;&gt;ant&lt;/font&gt;" style="text;html=1;align=center;verticalAlign=middle;resizable=0;points=[];autosize=1;strokeColor=none;fillColor=none;" parent="1" vertex="1">
          <mxGeometry x="280" y="1288.5" width="50" height="20" as="geometry" />
        </mxCell>
        <mxCell id="PzH0wcXM0nQExKtc6Y5--74" style="edgeStyle=orthogonalEdgeStyle;rounded=0;orthogonalLoop=1;jettySize=auto;html=1;exitX=1;exitY=0.5;exitDx=0;exitDy=0;entryX=0;entryY=0.5;entryDx=0;entryDy=0;endArrow=none;endFill=0;" parent="1" source="PzH0wcXM0nQExKtc6Y5--75" target="PzH0wcXM0nQExKtc6Y5--71" edge="1">
          <mxGeometry relative="1" as="geometry" />
        </mxCell>
        <mxCell id="PzH0wcXM0nQExKtc6Y5--75" value="" style="ellipse;whiteSpace=wrap;html=1;aspect=fixed;" parent="1" vertex="1">
          <mxGeometry x="165" y="1243.5" width="30" height="30" as="geometry" />
        </mxCell>
        <mxCell id="PzH0wcXM0nQExKtc6Y5--76" value="" style="rounded=1;whiteSpace=wrap;html=1;fontFamily=Georgia;fontSize=27;fontColor=#000000;strokeColor=#000000;fillColor=none;dashed=1;" parent="1" vertex="1">
          <mxGeometry x="151" y="1468" width="799" height="235" as="geometry" />
        </mxCell>
        <mxCell id="PzH0wcXM0nQExKtc6Y5--77" style="rounded=0;orthogonalLoop=1;jettySize=auto;html=1;exitX=1;exitY=0.5;exitDx=0;exitDy=0;entryX=0;entryY=0.5;entryDx=0;entryDy=0;endArrow=none;endFill=0;fontColor=#000000;strokeColor=#000000;fillColor=#e51400;" parent="1" source="PzH0wcXM0nQExKtc6Y5--79" target="PzH0wcXM0nQExKtc6Y5--82" edge="1">
          <mxGeometry relative="1" as="geometry" />
        </mxCell>
        <mxCell id="PzH0wcXM0nQExKtc6Y5--78" style="edgeStyle=none;rounded=0;orthogonalLoop=1;jettySize=auto;html=1;exitX=1;exitY=0.5;exitDx=0;exitDy=0;entryX=0;entryY=0.5;entryDx=0;entryDy=0;endArrow=none;endFill=0;fontColor=#000000;strokeColor=#000000;fillColor=#e51400;" parent="1" source="PzH0wcXM0nQExKtc6Y5--79" target="PzH0wcXM0nQExKtc6Y5--85" edge="1">
          <mxGeometry relative="1" as="geometry">
            <mxPoint x="494.99999999997317" y="1625.5" as="sourcePoint" />
          </mxGeometry>
        </mxCell>
        <mxCell id="PzH0wcXM0nQExKtc6Y5--79" value="" style="ellipse;whiteSpace=wrap;html=1;aspect=fixed;fillColor=none;" parent="1" vertex="1">
          <mxGeometry x="465" y="1570.5" width="30" height="30" as="geometry" />
        </mxCell>
        <mxCell id="PzH0wcXM0nQExKtc6Y5--80" style="edgeStyle=none;rounded=0;orthogonalLoop=1;jettySize=auto;html=1;exitX=1;exitY=0.5;exitDx=0;exitDy=0;entryX=0;entryY=0.5;entryDx=0;entryDy=0;endArrow=none;endFill=0;" parent="1" source="PzH0wcXM0nQExKtc6Y5--82" target="PzH0wcXM0nQExKtc6Y5--87" edge="1">
          <mxGeometry relative="1" as="geometry" />
        </mxCell>
        <mxCell id="PzH0wcXM0nQExKtc6Y5--81" style="edgeStyle=none;rounded=0;orthogonalLoop=1;jettySize=auto;html=1;exitX=1;exitY=0.5;exitDx=0;exitDy=0;entryX=0;entryY=0.5;entryDx=0;entryDy=0;endArrow=none;endFill=0;strokeColor=#000000;fillColor=#e51400;" parent="1" source="PzH0wcXM0nQExKtc6Y5--82" target="PzH0wcXM0nQExKtc6Y5--89" edge="1">
          <mxGeometry relative="1" as="geometry" />
        </mxCell>
        <mxCell id="PzH0wcXM0nQExKtc6Y5--82" value="" style="ellipse;whiteSpace=wrap;html=1;aspect=fixed;fillColor=none;fontColor=#000000;" parent="1" vertex="1">
          <mxGeometry x="560" y="1530.5" width="30" height="30" as="geometry" />
        </mxCell>
        <mxCell id="PzH0wcXM0nQExKtc6Y5--83" style="edgeStyle=none;rounded=0;orthogonalLoop=1;jettySize=auto;html=1;exitX=1;exitY=0.5;exitDx=0;exitDy=0;endArrow=none;endFill=0;entryX=0;entryY=0.5;entryDx=0;entryDy=0;strokeColor=#000000;fillColor=#e51400;" parent="1" source="PzH0wcXM0nQExKtc6Y5--85" target="PzH0wcXM0nQExKtc6Y5--89" edge="1">
          <mxGeometry relative="1" as="geometry">
            <mxPoint x="760" y="1610.5" as="targetPoint" />
          </mxGeometry>
        </mxCell>
        <mxCell id="PzH0wcXM0nQExKtc6Y5--84" style="edgeStyle=none;rounded=0;orthogonalLoop=1;jettySize=auto;html=1;exitX=1;exitY=0.5;exitDx=0;exitDy=0;entryX=0;entryY=0.5;entryDx=0;entryDy=0;endArrow=none;endFill=0;" parent="1" source="PzH0wcXM0nQExKtc6Y5--85" target="PzH0wcXM0nQExKtc6Y5--91" edge="1">
          <mxGeometry relative="1" as="geometry" />
        </mxCell>
        <mxCell id="PzH0wcXM0nQExKtc6Y5--85" value="" style="ellipse;whiteSpace=wrap;html=1;aspect=fixed;fillColor=none;fontColor=#000000;" parent="1" vertex="1">
          <mxGeometry x="560" y="1610.5" width="30" height="30" as="geometry" />
        </mxCell>
        <mxCell id="PzH0wcXM0nQExKtc6Y5--86" style="edgeStyle=none;rounded=0;orthogonalLoop=1;jettySize=auto;html=1;exitX=1;exitY=0.5;exitDx=0;exitDy=0;entryX=0;entryY=0.5;entryDx=0;entryDy=0;fontSize=18;endArrow=none;endFill=0;" parent="1" source="PzH0wcXM0nQExKtc6Y5--87" target="PzH0wcXM0nQExKtc6Y5--96" edge="1">
          <mxGeometry relative="1" as="geometry" />
        </mxCell>
        <mxCell id="PzH0wcXM0nQExKtc6Y5--87" value="" style="ellipse;whiteSpace=wrap;html=1;aspect=fixed;" parent="1" vertex="1">
          <mxGeometry x="690" y="1490.5" width="30" height="30" as="geometry" />
        </mxCell>
        <mxCell id="PzH0wcXM0nQExKtc6Y5--88" style="edgeStyle=none;rounded=0;orthogonalLoop=1;jettySize=auto;html=1;exitX=1;exitY=0.5;exitDx=0;exitDy=0;entryX=0;entryY=0.5;entryDx=0;entryDy=0;fontSize=18;endArrow=none;endFill=0;" parent="1" source="PzH0wcXM0nQExKtc6Y5--89" target="PzH0wcXM0nQExKtc6Y5--96" edge="1">
          <mxGeometry relative="1" as="geometry" />
        </mxCell>
        <mxCell id="PzH0wcXM0nQExKtc6Y5--89" value="" style="ellipse;whiteSpace=wrap;html=1;aspect=fixed;fillColor=none;" parent="1" vertex="1">
          <mxGeometry x="690" y="1570.5" width="30" height="30" as="geometry" />
        </mxCell>
        <mxCell id="PzH0wcXM0nQExKtc6Y5--90" style="edgeStyle=none;rounded=0;orthogonalLoop=1;jettySize=auto;html=1;exitX=1;exitY=0.5;exitDx=0;exitDy=0;entryX=0;entryY=0.5;entryDx=0;entryDy=0;fontSize=18;endArrow=none;endFill=0;" parent="1" source="PzH0wcXM0nQExKtc6Y5--91" target="PzH0wcXM0nQExKtc6Y5--96" edge="1">
          <mxGeometry relative="1" as="geometry">
            <mxPoint x="810" y="1625.5" as="targetPoint" />
          </mxGeometry>
        </mxCell>
        <mxCell id="PzH0wcXM0nQExKtc6Y5--91" value="" style="ellipse;whiteSpace=wrap;html=1;aspect=fixed;" parent="1" vertex="1">
          <mxGeometry x="690" y="1650.5" width="30" height="30" as="geometry" />
        </mxCell>
        <mxCell id="PzH0wcXM0nQExKtc6Y5--92" style="edgeStyle=none;rounded=0;orthogonalLoop=1;jettySize=auto;html=1;exitX=1;exitY=0.5;exitDx=0;exitDy=0;entryX=0;entryY=0.5;entryDx=0;entryDy=0;fontSize=18;endArrow=none;endFill=0;" parent="1" source="PzH0wcXM0nQExKtc6Y5--94" target="PzH0wcXM0nQExKtc6Y5--79" edge="1">
          <mxGeometry relative="1" as="geometry" />
        </mxCell>
        <mxCell id="PzH0wcXM0nQExKtc6Y5--93" style="rounded=0;orthogonalLoop=1;jettySize=auto;html=1;exitX=1;exitY=0.5;exitDx=0;exitDy=0;entryX=0;entryY=0.5;entryDx=0;entryDy=0;fontFamily=Georgia;fontSize=27;endArrow=none;endFill=0;" parent="1" source="PzH0wcXM0nQExKtc6Y5--112" target="PzH0wcXM0nQExKtc6Y5--79" edge="1">
          <mxGeometry relative="1" as="geometry">
            <mxPoint x="465.00000000002706" y="1625.5" as="targetPoint" />
          </mxGeometry>
        </mxCell>
        <mxCell id="PzH0wcXM0nQExKtc6Y5--94" value="" style="ellipse;whiteSpace=wrap;html=1;aspect=fixed;" parent="1" vertex="1">
          <mxGeometry x="345" y="1530.5" width="30" height="30" as="geometry" />
        </mxCell>
        <mxCell id="PzH0wcXM0nQExKtc6Y5--95" style="edgeStyle=none;rounded=0;orthogonalLoop=1;jettySize=auto;html=1;exitX=1;exitY=0.5;exitDx=0;exitDy=0;entryX=0;entryY=0.5;entryDx=0;entryDy=0;fontSize=18;endArrow=none;endFill=0;" parent="1" source="PzH0wcXM0nQExKtc6Y5--96" target="PzH0wcXM0nQExKtc6Y5--97" edge="1">
          <mxGeometry relative="1" as="geometry" />
        </mxCell>
        <mxCell id="PzH0wcXM0nQExKtc6Y5--96" value="" style="ellipse;whiteSpace=wrap;html=1;aspect=fixed;" parent="1" vertex="1">
          <mxGeometry x="820" y="1570.5" width="30" height="30" as="geometry" />
        </mxCell>
        <mxCell id="PzH0wcXM0nQExKtc6Y5--97" value="" style="ellipse;whiteSpace=wrap;html=1;aspect=fixed;" parent="1" vertex="1">
          <mxGeometry x="908" y="1570.5" width="30" height="30" as="geometry" />
        </mxCell>
        <mxCell id="PzH0wcXM0nQExKtc6Y5--98" value="&lt;font style=&quot;font-size: 27px&quot; face=&quot;Georgia&quot;&gt;&amp;lt;s&amp;gt;&lt;/font&gt;" style="text;html=1;align=center;verticalAlign=middle;resizable=0;points=[];autosize=1;strokeColor=none;fillColor=none;" parent="1" vertex="1">
          <mxGeometry x="193" y="1560.5" width="60" height="20" as="geometry" />
        </mxCell>
        <mxCell id="PzH0wcXM0nQExKtc6Y5--100" value="&lt;font style=&quot;font-size: 27px&quot; face=&quot;Georgia&quot;&gt;where&lt;/font&gt;" style="text;html=1;align=center;verticalAlign=middle;resizable=0;points=[];autosize=1;strokeColor=none;fillColor=none;" parent="1" vertex="1">
          <mxGeometry x="390" y="1535.5" width="90" height="20" as="geometry" />
        </mxCell>
        <mxCell id="PzH0wcXM0nQExKtc6Y5--101" value="&lt;font style=&quot;font-size: 27px&quot; face=&quot;Georgia&quot;&gt;where&lt;/font&gt;" style="text;html=1;align=center;verticalAlign=middle;resizable=0;points=[];autosize=1;strokeColor=none;fillColor=none;" parent="1" vertex="1">
          <mxGeometry x="390" y="1610.5" width="90" height="20" as="geometry" />
        </mxCell>
        <mxCell id="PzH0wcXM0nQExKtc6Y5--102" value="&lt;font style=&quot;font-size: 27px&quot; face=&quot;Georgia&quot;&gt;is&lt;/font&gt;" style="text;html=1;align=center;verticalAlign=middle;resizable=0;points=[];autosize=1;strokeColor=none;fillColor=none;fontColor=#000000;" parent="1" vertex="1">
          <mxGeometry x="509" y="1530.5" width="40" height="20" as="geometry" />
        </mxCell>
        <mxCell id="PzH0wcXM0nQExKtc6Y5--103" value="&lt;font style=&quot;font-size: 27px&quot; face=&quot;Georgia&quot;&gt;is&lt;/font&gt;" style="text;html=1;align=center;verticalAlign=middle;resizable=0;points=[];autosize=1;strokeColor=none;fillColor=none;fontColor=#000000;" parent="1" vertex="1">
          <mxGeometry x="509" y="1610.5" width="40" height="20" as="geometry" />
        </mxCell>
        <mxCell id="PzH0wcXM0nQExKtc6Y5--104" value="&lt;font style=&quot;font-size: 27px&quot; face=&quot;Georgia&quot;&gt;the&lt;/font&gt;" style="text;html=1;align=center;verticalAlign=middle;resizable=0;points=[];autosize=1;strokeColor=none;fillColor=none;fontColor=#000000;" parent="1" vertex="1">
          <mxGeometry x="620" y="1610.5" width="50" height="20" as="geometry" />
        </mxCell>
        <mxCell id="PzH0wcXM0nQExKtc6Y5--105" value="&lt;font style=&quot;font-size: 27px&quot; face=&quot;Georgia&quot;&gt;the&lt;/font&gt;" style="text;html=1;align=center;verticalAlign=middle;resizable=0;points=[];autosize=1;strokeColor=none;fillColor=none;fontColor=#000000;" parent="1" vertex="1">
          <mxGeometry x="620" y="1540.5" width="50" height="20" as="geometry" />
        </mxCell>
        <mxCell id="PzH0wcXM0nQExKtc6Y5--106" value="&lt;font style=&quot;font-size: 27px&quot; face=&quot;Georgia&quot;&gt;these&lt;/font&gt;" style="text;html=1;align=center;verticalAlign=middle;resizable=0;points=[];autosize=1;strokeColor=none;fillColor=none;" parent="1" vertex="1">
          <mxGeometry x="599" y="1490.5" width="80" height="20" as="geometry" />
        </mxCell>
        <mxCell id="PzH0wcXM0nQExKtc6Y5--107" value="&lt;font style=&quot;font-size: 27px&quot; face=&quot;Georgia&quot;&gt;there&lt;/font&gt;" style="text;html=1;align=center;verticalAlign=middle;resizable=0;points=[];autosize=1;strokeColor=none;fillColor=none;fontColor=#000000;" parent="1" vertex="1">
          <mxGeometry x="599" y="1655.5" width="80" height="20" as="geometry" />
        </mxCell>
        <mxCell id="PzH0wcXM0nQExKtc6Y5--108" value="&lt;font style=&quot;font-size: 27px&quot; face=&quot;Georgia&quot;&gt;book&lt;/font&gt;" style="text;html=1;align=center;verticalAlign=middle;resizable=0;points=[];autosize=1;strokeColor=none;fillColor=none;" parent="1" vertex="1">
          <mxGeometry x="755" y="1510.5" width="70" height="20" as="geometry" />
        </mxCell>
        <mxCell id="PzH0wcXM0nQExKtc6Y5--109" value="&lt;font style=&quot;font-size: 27px&quot; face=&quot;Georgia&quot;&gt;book&lt;/font&gt;" style="text;html=1;align=center;verticalAlign=middle;resizable=0;points=[];autosize=1;strokeColor=none;fillColor=none;" parent="1" vertex="1">
          <mxGeometry x="720" y="1560.5" width="70" height="20" as="geometry" />
        </mxCell>
        <mxCell id="PzH0wcXM0nQExKtc6Y5--110" value="&lt;font style=&quot;font-size: 27px&quot; face=&quot;Georgia&quot;&gt;&amp;lt;/s&amp;gt;&lt;/font&gt;" style="text;html=1;align=center;verticalAlign=middle;resizable=0;points=[];autosize=1;strokeColor=none;fillColor=none;" parent="1" vertex="1">
          <mxGeometry x="838" y="1555.5" width="70" height="20" as="geometry" />
        </mxCell>
        <mxCell id="PzH0wcXM0nQExKtc6Y5--111" value="&lt;font style=&quot;font-size: 27px&quot; face=&quot;Georgia&quot;&gt;book&lt;br&gt;&lt;/font&gt;" style="text;html=1;align=center;verticalAlign=middle;resizable=0;points=[];autosize=1;strokeColor=none;fillColor=none;" parent="1" vertex="1">
          <mxGeometry x="755" y="1640.5" width="70" height="20" as="geometry" />
        </mxCell>
        <mxCell id="PzH0wcXM0nQExKtc6Y5--112" value="" style="ellipse;whiteSpace=wrap;html=1;aspect=fixed;" parent="1" vertex="1">
          <mxGeometry x="345" y="1610.5" width="30" height="30" as="geometry" />
        </mxCell>
        <mxCell id="PzH0wcXM0nQExKtc6Y5--113" style="rounded=0;orthogonalLoop=1;jettySize=auto;html=1;exitX=1;exitY=0.5;exitDx=0;exitDy=0;entryX=0;entryY=0.5;entryDx=0;entryDy=0;endArrow=none;endFill=0;" parent="1" source="PzH0wcXM0nQExKtc6Y5--115" target="PzH0wcXM0nQExKtc6Y5--94" edge="1">
          <mxGeometry relative="1" as="geometry" />
        </mxCell>
        <mxCell id="PzH0wcXM0nQExKtc6Y5--114" style="rounded=0;orthogonalLoop=1;jettySize=auto;html=1;exitX=1;exitY=0.5;exitDx=0;exitDy=0;entryX=0;entryY=0.5;entryDx=0;entryDy=0;endArrow=none;endFill=0;" parent="1" source="PzH0wcXM0nQExKtc6Y5--115" target="PzH0wcXM0nQExKtc6Y5--112" edge="1">
          <mxGeometry relative="1" as="geometry" />
        </mxCell>
        <mxCell id="PzH0wcXM0nQExKtc6Y5--115" value="" style="ellipse;whiteSpace=wrap;html=1;aspect=fixed;" parent="1" vertex="1">
          <mxGeometry x="245" y="1570.5" width="30" height="30" as="geometry" />
        </mxCell>
        <mxCell id="PzH0wcXM0nQExKtc6Y5--116" value="&lt;font style=&quot;font-size: 27px&quot; face=&quot;Georgia&quot;&gt;and&lt;/font&gt;" style="text;html=1;align=center;verticalAlign=middle;resizable=0;points=[];autosize=1;strokeColor=none;fillColor=none;" parent="1" vertex="1">
          <mxGeometry x="275" y="1535.5" width="60" height="20" as="geometry" />
        </mxCell>
        <mxCell id="PzH0wcXM0nQExKtc6Y5--117" value="&lt;font style=&quot;font-size: 27px&quot; face=&quot;Georgia&quot;&gt;ant&lt;/font&gt;" style="text;html=1;align=center;verticalAlign=middle;resizable=0;points=[];autosize=1;strokeColor=none;fillColor=none;" parent="1" vertex="1">
          <mxGeometry x="280" y="1615.5" width="50" height="20" as="geometry" />
        </mxCell>
        <mxCell id="PzH0wcXM0nQExKtc6Y5--118" style="edgeStyle=orthogonalEdgeStyle;rounded=0;orthogonalLoop=1;jettySize=auto;html=1;exitX=1;exitY=0.5;exitDx=0;exitDy=0;entryX=0;entryY=0.5;entryDx=0;entryDy=0;endArrow=none;endFill=0;" parent="1" source="PzH0wcXM0nQExKtc6Y5--119" target="PzH0wcXM0nQExKtc6Y5--115" edge="1">
          <mxGeometry relative="1" as="geometry" />
        </mxCell>
        <mxCell id="PzH0wcXM0nQExKtc6Y5--119" value="" style="ellipse;whiteSpace=wrap;html=1;aspect=fixed;" parent="1" vertex="1">
          <mxGeometry x="165" y="1570.5" width="30" height="30" as="geometry" />
        </mxCell>
        <mxCell id="PzH0wcXM0nQExKtc6Y5--120" value="" style="shape=flexArrow;endArrow=classic;html=1;rounded=0;fontFamily=Georgia;fontSize=27;fontColor=#000000;strokeColor=#000000;width=10.833333333333334;endSize=4.508333333333334;" parent="1" edge="1">
          <mxGeometry width="50" height="50" relative="1" as="geometry">
            <mxPoint x="958.9999999999998" y="1261" as="sourcePoint" />
            <mxPoint x="998.9999999999998" y="1261.5" as="targetPoint" />
          </mxGeometry>
        </mxCell>
        <mxCell id="PzH0wcXM0nQExKtc6Y5--122" value="" style="ellipse;whiteSpace=wrap;html=1;aspect=fixed;fontFamily=Georgia;fontSize=36;strokeColor=#000000;" parent="1" vertex="1">
          <mxGeometry x="963" y="1210.5" width="25" height="25" as="geometry" />
        </mxCell>
        <mxCell id="PzH0wcXM0nQExKtc6Y5--124" value="&lt;span style=&quot;font-size: 20px&quot;&gt;1&lt;/span&gt;" style="text;html=1;align=center;verticalAlign=middle;resizable=0;points=[];autosize=1;strokeColor=none;fillColor=none;fontSize=13;fontFamily=Helvetica;" parent="1" vertex="1">
          <mxGeometry x="960" y="1213.5" width="30" height="20" as="geometry" />
        </mxCell>
        <mxCell id="PzH0wcXM0nQExKtc6Y5--129" value="" style="ellipse;whiteSpace=wrap;html=1;aspect=fixed;fontFamily=Georgia;fontSize=36;strokeColor=#000000;" parent="1" vertex="1">
          <mxGeometry x="963" y="1541" width="25" height="25" as="geometry" />
        </mxCell>
        <mxCell id="PzH0wcXM0nQExKtc6Y5--130" value="&lt;span style=&quot;font-size: 20px&quot;&gt;2&lt;/span&gt;" style="text;html=1;align=center;verticalAlign=middle;resizable=0;points=[];autosize=1;strokeColor=none;fillColor=none;fontSize=13;fontFamily=Helvetica;" parent="1" vertex="1">
          <mxGeometry x="960" y="1544" width="30" height="20" as="geometry" />
        </mxCell>
        <mxCell id="PzH0wcXM0nQExKtc6Y5--131" value="&lt;font style=&quot;font-size: 36px&quot; face=&quot;Georgia&quot;&gt;(a)&lt;/font&gt;" style="text;html=1;align=center;verticalAlign=middle;resizable=0;points=[];autosize=1;strokeColor=none;fillColor=none;fontSize=20;fontFamily=Helvetica;" parent="1" vertex="1">
          <mxGeometry x="990" y="644" width="60" height="40" as="geometry" />
        </mxCell>
        <mxCell id="PzH0wcXM0nQExKtc6Y5--132" value="&lt;font style=&quot;font-size: 36px&quot; face=&quot;Georgia&quot;&gt;(b)&lt;/font&gt;" style="text;html=1;align=center;verticalAlign=middle;resizable=0;points=[];autosize=1;strokeColor=none;fillColor=none;fontSize=20;fontFamily=Helvetica;" parent="1" vertex="1">
          <mxGeometry x="983" y="1042" width="60" height="40" as="geometry" />
        </mxCell>
        <mxCell id="PzH0wcXM0nQExKtc6Y5--133" value="&lt;font style=&quot;font-size: 36px&quot; face=&quot;Georgia&quot;&gt;(c)&lt;/font&gt;" style="text;html=1;align=center;verticalAlign=middle;resizable=0;points=[];autosize=1;strokeColor=none;fillColor=none;fontSize=20;fontFamily=Helvetica;" parent="1" vertex="1">
          <mxGeometry x="983" y="1722" width="60" height="40" as="geometry" />
        </mxCell>
        <mxCell id="-7ac9GRLncbdpuf5_cNM-1" style="rounded=0;orthogonalLoop=1;jettySize=auto;html=1;exitX=1;exitY=0.5;exitDx=0;exitDy=0;entryX=0;entryY=0.5;entryDx=0;entryDy=0;endArrow=none;endFill=0;fontColor=#FF0000;strokeColor=#000000;fillColor=#e51400;" edge="1" parent="1" source="-7ac9GRLncbdpuf5_cNM-3" target="-7ac9GRLncbdpuf5_cNM-6">
          <mxGeometry relative="1" as="geometry" />
        </mxCell>
        <mxCell id="-7ac9GRLncbdpuf5_cNM-2" style="edgeStyle=none;rounded=0;orthogonalLoop=1;jettySize=auto;html=1;exitX=1;exitY=0.5;exitDx=0;exitDy=0;entryX=0;entryY=0.5;entryDx=0;entryDy=0;endArrow=none;endFill=0;fontColor=#FF0000;strokeColor=#000000;fillColor=#e51400;" edge="1" parent="1" source="-7ac9GRLncbdpuf5_cNM-23" target="-7ac9GRLncbdpuf5_cNM-9">
          <mxGeometry relative="1" as="geometry" />
        </mxCell>
        <mxCell id="-7ac9GRLncbdpuf5_cNM-3" value="" style="ellipse;whiteSpace=wrap;html=1;aspect=fixed;fontColor=#ffffff;strokeColor=#000000;fillColor=none;" vertex="1" parent="1">
          <mxGeometry x="-328" y="480" width="30" height="30" as="geometry" />
        </mxCell>
        <mxCell id="-7ac9GRLncbdpuf5_cNM-4" style="edgeStyle=none;rounded=0;orthogonalLoop=1;jettySize=auto;html=1;exitX=1;exitY=0.5;exitDx=0;exitDy=0;entryX=0;entryY=0.5;entryDx=0;entryDy=0;endArrow=none;endFill=0;" edge="1" parent="1" source="-7ac9GRLncbdpuf5_cNM-6" target="-7ac9GRLncbdpuf5_cNM-11">
          <mxGeometry relative="1" as="geometry" />
        </mxCell>
        <mxCell id="-7ac9GRLncbdpuf5_cNM-5" style="edgeStyle=none;rounded=0;orthogonalLoop=1;jettySize=auto;html=1;exitX=1;exitY=0.5;exitDx=0;exitDy=0;entryX=0;entryY=0.5;entryDx=0;entryDy=0;endArrow=none;endFill=0;strokeColor=#000000;fillColor=#e51400;" edge="1" parent="1" source="-7ac9GRLncbdpuf5_cNM-6" target="-7ac9GRLncbdpuf5_cNM-13">
          <mxGeometry relative="1" as="geometry" />
        </mxCell>
        <mxCell id="-7ac9GRLncbdpuf5_cNM-6" value="" style="ellipse;whiteSpace=wrap;html=1;aspect=fixed;fontColor=#ffffff;strokeColor=#000000;fillColor=none;" vertex="1" parent="1">
          <mxGeometry x="-228" y="480" width="30" height="30" as="geometry" />
        </mxCell>
        <mxCell id="-7ac9GRLncbdpuf5_cNM-7" style="edgeStyle=none;rounded=0;orthogonalLoop=1;jettySize=auto;html=1;exitX=1;exitY=0.5;exitDx=0;exitDy=0;endArrow=none;endFill=0;entryX=0;entryY=0.5;entryDx=0;entryDy=0;strokeColor=#000000;fillColor=#e51400;" edge="1" parent="1" source="-7ac9GRLncbdpuf5_cNM-9" target="-7ac9GRLncbdpuf5_cNM-13">
          <mxGeometry relative="1" as="geometry">
            <mxPoint x="-28" y="560" as="targetPoint" />
          </mxGeometry>
        </mxCell>
        <mxCell id="-7ac9GRLncbdpuf5_cNM-8" style="edgeStyle=none;rounded=0;orthogonalLoop=1;jettySize=auto;html=1;exitX=1;exitY=0.5;exitDx=0;exitDy=0;entryX=0;entryY=0.5;entryDx=0;entryDy=0;endArrow=none;endFill=0;" edge="1" parent="1" source="-7ac9GRLncbdpuf5_cNM-9" target="-7ac9GRLncbdpuf5_cNM-15">
          <mxGeometry relative="1" as="geometry" />
        </mxCell>
        <mxCell id="-7ac9GRLncbdpuf5_cNM-9" value="" style="ellipse;whiteSpace=wrap;html=1;aspect=fixed;fontColor=#ffffff;strokeColor=#000000;fillColor=none;" vertex="1" parent="1">
          <mxGeometry x="-228" y="560" width="30" height="30" as="geometry" />
        </mxCell>
        <mxCell id="-7ac9GRLncbdpuf5_cNM-10" style="edgeStyle=none;rounded=0;orthogonalLoop=1;jettySize=auto;html=1;exitX=1;exitY=0.5;exitDx=0;exitDy=0;entryX=0;entryY=0.5;entryDx=0;entryDy=0;fontSize=18;endArrow=none;endFill=0;" edge="1" parent="1" source="-7ac9GRLncbdpuf5_cNM-11" target="-7ac9GRLncbdpuf5_cNM-20">
          <mxGeometry relative="1" as="geometry" />
        </mxCell>
        <mxCell id="-7ac9GRLncbdpuf5_cNM-11" value="" style="ellipse;whiteSpace=wrap;html=1;aspect=fixed;" vertex="1" parent="1">
          <mxGeometry x="-98" y="440" width="30" height="30" as="geometry" />
        </mxCell>
        <mxCell id="-7ac9GRLncbdpuf5_cNM-12" style="edgeStyle=none;rounded=0;orthogonalLoop=1;jettySize=auto;html=1;exitX=1;exitY=0.5;exitDx=0;exitDy=0;entryX=0;entryY=0.5;entryDx=0;entryDy=0;fontSize=18;endArrow=none;endFill=0;" edge="1" parent="1" source="-7ac9GRLncbdpuf5_cNM-13" target="-7ac9GRLncbdpuf5_cNM-20">
          <mxGeometry relative="1" as="geometry" />
        </mxCell>
        <mxCell id="-7ac9GRLncbdpuf5_cNM-13" value="" style="ellipse;whiteSpace=wrap;html=1;aspect=fixed;strokeColor=#000000;fillColor=none;fontColor=#ffffff;" vertex="1" parent="1">
          <mxGeometry x="-98" y="520" width="30" height="30" as="geometry" />
        </mxCell>
        <mxCell id="-7ac9GRLncbdpuf5_cNM-14" style="edgeStyle=none;rounded=0;orthogonalLoop=1;jettySize=auto;html=1;exitX=1;exitY=0.5;exitDx=0;exitDy=0;entryX=0;entryY=0.5;entryDx=0;entryDy=0;fontSize=18;endArrow=none;endFill=0;" edge="1" parent="1" source="-7ac9GRLncbdpuf5_cNM-15" target="-7ac9GRLncbdpuf5_cNM-20">
          <mxGeometry relative="1" as="geometry">
            <mxPoint x="22" y="575" as="targetPoint" />
          </mxGeometry>
        </mxCell>
        <mxCell id="-7ac9GRLncbdpuf5_cNM-15" value="" style="ellipse;whiteSpace=wrap;html=1;aspect=fixed;" vertex="1" parent="1">
          <mxGeometry x="-98" y="600" width="30" height="30" as="geometry" />
        </mxCell>
        <mxCell id="-7ac9GRLncbdpuf5_cNM-16" style="edgeStyle=none;rounded=0;orthogonalLoop=1;jettySize=auto;html=1;exitX=1;exitY=0.5;exitDx=0;exitDy=0;entryX=0;entryY=0.5;entryDx=0;entryDy=0;fontSize=18;endArrow=none;endFill=0;" edge="1" parent="1" source="-7ac9GRLncbdpuf5_cNM-18" target="-7ac9GRLncbdpuf5_cNM-3">
          <mxGeometry relative="1" as="geometry" />
        </mxCell>
        <mxCell id="-7ac9GRLncbdpuf5_cNM-17" style="rounded=0;orthogonalLoop=1;jettySize=auto;html=1;exitX=1;exitY=0.5;exitDx=0;exitDy=0;entryX=0;entryY=0.5;entryDx=0;entryDy=0;fontFamily=Georgia;fontSize=27;endArrow=none;endFill=0;" edge="1" parent="1" source="-7ac9GRLncbdpuf5_cNM-18" target="-7ac9GRLncbdpuf5_cNM-23">
          <mxGeometry relative="1" as="geometry" />
        </mxCell>
        <mxCell id="-7ac9GRLncbdpuf5_cNM-18" value="" style="ellipse;whiteSpace=wrap;html=1;aspect=fixed;" vertex="1" parent="1">
          <mxGeometry x="-428" y="520" width="30" height="30" as="geometry" />
        </mxCell>
        <mxCell id="-7ac9GRLncbdpuf5_cNM-19" style="edgeStyle=none;rounded=0;orthogonalLoop=1;jettySize=auto;html=1;exitX=1;exitY=0.5;exitDx=0;exitDy=0;entryX=0;entryY=0.5;entryDx=0;entryDy=0;fontSize=18;endArrow=none;endFill=0;" edge="1" parent="1" source="-7ac9GRLncbdpuf5_cNM-20" target="-7ac9GRLncbdpuf5_cNM-21">
          <mxGeometry relative="1" as="geometry" />
        </mxCell>
        <mxCell id="-7ac9GRLncbdpuf5_cNM-20" value="" style="ellipse;whiteSpace=wrap;html=1;aspect=fixed;" vertex="1" parent="1">
          <mxGeometry x="22" y="520" width="30" height="30" as="geometry" />
        </mxCell>
        <mxCell id="-7ac9GRLncbdpuf5_cNM-21" value="" style="ellipse;whiteSpace=wrap;html=1;aspect=fixed;" vertex="1" parent="1">
          <mxGeometry x="122" y="520" width="30" height="30" as="geometry" />
        </mxCell>
        <mxCell id="-7ac9GRLncbdpuf5_cNM-22" value="&lt;font style=&quot;font-size: 27px&quot; face=&quot;Georgia&quot;&gt;&amp;lt;s&amp;gt;&lt;/font&gt;" style="text;html=1;align=center;verticalAlign=middle;resizable=0;points=[];autosize=1;strokeColor=none;fillColor=none;" vertex="1" parent="1">
          <mxGeometry x="-488" y="525" width="60" height="20" as="geometry" />
        </mxCell>
        <mxCell id="-7ac9GRLncbdpuf5_cNM-23" value="" style="ellipse;whiteSpace=wrap;html=1;aspect=fixed;fontColor=#ffffff;strokeColor=#000000;fillColor=none;" vertex="1" parent="1">
          <mxGeometry x="-328" y="560" width="30" height="30" as="geometry" />
        </mxCell>
        <mxCell id="-7ac9GRLncbdpuf5_cNM-24" value="&lt;font style=&quot;font-size: 27px&quot; face=&quot;Georgia&quot;&gt;we&lt;/font&gt;" style="text;html=1;align=center;verticalAlign=middle;resizable=0;points=[];autosize=1;strokeColor=none;fillColor=none;" vertex="1" parent="1">
          <mxGeometry x="-393" y="485" width="50" height="20" as="geometry" />
        </mxCell>
        <mxCell id="-7ac9GRLncbdpuf5_cNM-25" value="&lt;font style=&quot;font-size: 27px&quot; face=&quot;Georgia&quot;&gt;he&lt;/font&gt;" style="text;html=1;align=center;verticalAlign=middle;resizable=0;points=[];autosize=1;strokeColor=none;fillColor=none;" vertex="1" parent="1">
          <mxGeometry x="-388" y="565" width="40" height="20" as="geometry" />
        </mxCell>
        <mxCell id="-7ac9GRLncbdpuf5_cNM-26" value="&lt;font style=&quot;font-size: 27px&quot; face=&quot;Georgia&quot;&gt;see&lt;/font&gt;" style="text;html=1;align=center;verticalAlign=middle;resizable=0;points=[];autosize=1;strokeColor=none;fillColor=none;fontColor=#000000;" vertex="1" parent="1">
          <mxGeometry x="-288" y="470" width="50" height="20" as="geometry" />
        </mxCell>
        <mxCell id="-7ac9GRLncbdpuf5_cNM-27" value="&lt;font style=&quot;font-size: 27px&quot; face=&quot;Georgia&quot;&gt;see&lt;/font&gt;" style="text;html=1;align=center;verticalAlign=middle;resizable=0;points=[];autosize=1;strokeColor=none;fillColor=none;fontColor=#000000;" vertex="1" parent="1">
          <mxGeometry x="-288" y="575" width="50" height="20" as="geometry" />
        </mxCell>
        <mxCell id="-7ac9GRLncbdpuf5_cNM-28" value="&lt;font style=&quot;font-size: 27px&quot; face=&quot;Georgia&quot;&gt;the&lt;/font&gt;" style="text;html=1;align=center;verticalAlign=middle;resizable=0;points=[];autosize=1;strokeColor=none;fillColor=none;fontColor=#000000;" vertex="1" parent="1">
          <mxGeometry x="-168" y="560" width="50" height="20" as="geometry" />
        </mxCell>
        <mxCell id="-7ac9GRLncbdpuf5_cNM-29" value="&lt;font style=&quot;font-size: 27px&quot; face=&quot;Georgia&quot;&gt;the&lt;/font&gt;" style="text;html=1;align=center;verticalAlign=middle;resizable=0;points=[];autosize=1;strokeColor=none;fillColor=none;fontColor=#000000;" vertex="1" parent="1">
          <mxGeometry x="-168" y="490" width="50" height="20" as="geometry" />
        </mxCell>
        <mxCell id="-7ac9GRLncbdpuf5_cNM-30" value="&lt;font style=&quot;font-size: 27px&quot; face=&quot;Georgia&quot;&gt;these&lt;/font&gt;" style="text;html=1;align=center;verticalAlign=middle;resizable=0;points=[];autosize=1;strokeColor=none;fillColor=none;" vertex="1" parent="1">
          <mxGeometry x="-189" y="440" width="80" height="20" as="geometry" />
        </mxCell>
        <mxCell id="-7ac9GRLncbdpuf5_cNM-31" value="&lt;font style=&quot;font-size: 27px&quot; face=&quot;Georgia&quot;&gt;there&lt;/font&gt;" style="text;html=1;align=center;verticalAlign=middle;resizable=0;points=[];autosize=1;strokeColor=none;fillColor=none;" vertex="1" parent="1">
          <mxGeometry x="-189" y="605" width="80" height="20" as="geometry" />
        </mxCell>
        <mxCell id="-7ac9GRLncbdpuf5_cNM-32" value="&lt;font style=&quot;font-size: 27px&quot; face=&quot;Georgia&quot;&gt;bed&lt;/font&gt;" style="text;html=1;align=center;verticalAlign=middle;resizable=0;points=[];autosize=1;strokeColor=none;fillColor=none;" vertex="1" parent="1">
          <mxGeometry x="-47" y="460" width="60" height="20" as="geometry" />
        </mxCell>
        <mxCell id="-7ac9GRLncbdpuf5_cNM-33" value="&lt;font style=&quot;font-size: 27px&quot; face=&quot;Georgia&quot;&gt;bed&lt;/font&gt;" style="text;html=1;align=center;verticalAlign=middle;resizable=0;points=[];autosize=1;strokeColor=none;fillColor=none;" vertex="1" parent="1">
          <mxGeometry x="-68" y="510" width="60" height="20" as="geometry" />
        </mxCell>
        <mxCell id="-7ac9GRLncbdpuf5_cNM-34" value="&lt;font style=&quot;font-size: 27px&quot; face=&quot;Georgia&quot;&gt;&amp;lt;/s&amp;gt;&lt;/font&gt;" style="text;html=1;align=center;verticalAlign=middle;resizable=0;points=[];autosize=1;strokeColor=none;fillColor=none;" vertex="1" parent="1">
          <mxGeometry x="52" y="505" width="70" height="20" as="geometry" />
        </mxCell>
        <mxCell id="-7ac9GRLncbdpuf5_cNM-35" value="&lt;font style=&quot;font-size: 27px&quot; face=&quot;Georgia&quot;&gt;bed&lt;/font&gt;" style="text;html=1;align=center;verticalAlign=middle;resizable=0;points=[];autosize=1;strokeColor=none;fillColor=none;" vertex="1" parent="1">
          <mxGeometry x="-47" y="590" width="60" height="20" as="geometry" />
        </mxCell>
      </root>
    </mxGraphModel>
  </diagram>
</mxfile>
